<?xml version="1.0" encoding="UTF-8"?><svg id="a" xmlns="http://www.w3.org/2000/svg" viewBox="0 0 560 150"><circle cx="280.5" cy="75.5" r="73.5" style="fill:#fff; stroke:#4db683; stroke-miterlimit:10;"/><circle cx="280.5" cy="75.5" r="66" style="fill:#4db683;"/><rect x="159.5" y="38.5" width="241" height="75" rx="3.29" ry="3.29" style="fill:#fff; stroke:#00964d; stroke-miterlimit:10;"/><path d="M175.95,96.48l14.95-41.69h13.91l14.95,41.69h-13.68l-1.56-5.44h-13.59l-1.5,5.44h-13.48ZM193.54,82.38h8.55l-4.33-14.87-4.22,14.87Z" style="fill:#00964d;"/><path d="M222.23,76.34h15.41v10.65h-15.41v-10.65Z" style="fill:#00964d;"/><path d="M243.16,54.79h16.45l7.28,26.05,7.28-26.05h16.45v41.69h-12.18v-24.1l-6.85,24.1h-9.4l-6.85-24.1v24.1h-12.18v-41.69Z" style="fill:#00964d;"/><path d="M295.12,96.48l14.95-41.69h13.91l14.95,41.69h-13.68l-1.56-5.44h-13.59l-1.5,5.44h-13.48ZM312.71,82.38h8.55l-4.33-14.87-4.22,14.87Z" style="fill:#00964d;"/><path d="M340.01,96.48l14.81-21.83-13.31-19.85h15.41l5.78,10.42,5.86-10.42h15.41l-13.93,19.85,14.16,21.83h-15.41l-6.66-11.72-6.71,11.72h-15.41Z" style="fill:#00964d;"/><path d="M407.11,40.81h6.59v1.75h-2.13v5.43h-2.32v-5.43h-2.13v-1.75Z" style="fill:#00964d;"/><path d="M417.52,40.81l1.17,4.66,1.35-4.66h2.92v7.18h-2.53v-2.33l.2-2.13-1.17,4.47h-1.55l-1.17-4.47.2,2.13v2.33h-2.33v-7.18h2.91Z" style="fill:#00964d;"/></svg>