<svg width="25" height="24" viewBox="0 0 25 24" fill="none" xmlns="http://www.w3.org/2000/svg">
<path d="M22.9505 0H1.05049C0.450488 0 0.000488281 0.45 0.000488281 1.05V23.1C0.000488281 23.55 0.450488 24 1.05049 24H23.1005C23.7005 24 24.1505 23.55 24.1505 22.95V1.05C24.0005 0.45 23.5505 0 22.9505 0ZM7.05049 20.4H3.60049V9H7.20049V20.4H7.05049ZM5.40049 7.5C4.20049 7.5 3.30049 6.45 3.30049 5.4C3.30049 4.2 4.20049 3.3 5.40049 3.3C6.60049 3.3 7.50049 4.2 7.50049 5.4C7.35049 6.45 6.45049 7.5 5.40049 7.5ZM20.4005 20.4H16.8005V14.85C16.8005 13.5 16.8005 11.85 15.0005 11.85C13.2005 11.85 12.9005 13.35 12.9005 14.85V20.55H9.30049V9H12.7505V10.5C13.2005 9.6 14.4005 8.7 16.0505 8.7C19.6505 8.7 20.2505 11.1 20.2505 14.1V20.4H20.4005Z" fill="white"/>
</svg>
