<?xml version="1.0" encoding="UTF-8"?><svg xmlns="http://www.w3.org/2000/svg" viewBox="0 0 137.82 136.59"><g style="isolation:isolate;"><g id="a"><g id="b"><path d="M134.13,68.57c0,36.15-29.32,65.46-65.47,65.46S3.2,104.72,3.2,68.57,32.5,3.11,68.66,3.11s65.47,29.31,65.47,65.46" style="fill:#c0042f; fill-rule:evenodd; mix-blend-mode:darken;"/><path d="M68.66,3.53C32.8,3.53,3.62,32.71,3.62,68.57s29.18,65.04,65.04,65.04,65.04-29.17,65.04-65.04S104.52,3.53,68.66,3.53Z" style="fill:#c0042f; fill-rule:evenodd;"/><path d="M105.8,68.57c0-20.51-16.63-37.14-37.14-37.14s-37.14,16.63-37.14,37.14,16.63,37.14,37.14,37.14,37.14-16.63,37.14-37.14" style="fill:#fff; fill-rule:evenodd;"/><path d="M68.66,6.12C34.22,6.12,6.21,34.13,6.21,68.57s28.01,62.45,62.45,62.45,62.46-28.01,62.46-62.45S103.09,6.12,68.66,6.12ZM68.66,129.22c-33.44,0-60.65-27.21-60.65-60.65S35.21,7.92,68.66,7.92s60.66,27.21,60.66,60.65-27.21,60.65-60.66,60.65Z" style="fill:#fff;"/><path d="M81.96,72.73c-1.8-1.82-3.74-2.31-4.36-2.45-.61-.14-2.94-.31-3.75-.2-.81.11-2.01.48-2.21,1.01-.17.44-.35,1.04-.84,1.64-.38.46-.97,1.19-1.4,2.03-.78,1.18-.94,2.62-1.13,4.22-.17,1.49-.27,3.16-.93,4.5l-.26.52-.48-.33c-.52-.36-.76-.75-1.04-1.21l-.87-1.21c-4.45-3.84-6.7-6.71-9.21-11.77l-.98-2.29v-.28c1.15-1.54,1.66-3.31,1.94-5.23.09-.39,0-.83-.13-1.16-.17-.47-.32-1.04-.12-1.78,0,0-.02-.37-.02-.48,0-.11-.09-.54-.17-.67-.12-.19-.92-1.11-1.65-1.68-.45-.35-.73-.4-.92-.49l-.47-.05-.22-.25c-.44-.76-.97-1.11-1.5-.84-.55.28-1.29.17-1.51-.09-.18-.21-.53-.41-.83-.38-.52.05-1.15.24-1.36.48-.73.84-1.16,1.08-1.67,1.12-.31.02-.56.15-.76.5l-.21.41-.34.02c-.71.08-1.09.51-1.27.78l-.21.46-1.14,1.39c-.34.45-1.15,1.95-1.03,4.04l.18.21,1.24-.46,1.68-.85c.06-.07.99-.36,1.51.35.29.64.54.8,1.4,1.53.44.33-2.95,2.94-2.95,2.94l-.35,1.22c.79.64,1.05.94,1.84,1.78l1.48,1.77v.07c1.5,4.86,3.13,9.66,4.85,14.26,3.21,8.7,9.78,15.09,12.12,15.26,2.24.27,3.8-.41,6.07-2.87,0,0,1.01-.95,1.87-1.57.42-.3,2.26-1.7,4.1-3.4,1.76-1.63,3.52-3.55,4.32-4.49,1.58-1.85,2.82-3.9,3.94-5.89,0,0,.36-.42.32-2.06-.04-1.33-.18-2.62-.4-3.42-.22-.8-.38-2.78-2.21-4.63Z" style="fill:#fbdedc;"/><path d="M81.96,72.73c-1.8-1.82-3.74-2.31-4.36-2.45-.61-.14-2.94-.31-3.75-.2-.81.11-2.01.48-2.21,1.01-.17.44-.35,1.04-.84,1.64-.38.46-.97,1.19-1.4,2.03-.78,1.18-.94,2.62-1.13,4.22-.17,1.49-.27,3.16-.93,4.5l-.26.52-.48-.33c-.52-.36-.76-.75-1.04-1.21l-.87-1.21c-4.45-3.84-6.7-6.71-9.21-11.77l-.98-2.29v-.28c1.15-1.54,1.66-3.31,1.94-5.23.09-.39,0-.83-.13-1.16-.17-.47-.32-1.04-.12-1.78,0,0-.02-.37-.02-.48,0-.11-.09-.54-.17-.67-.12-.19-.92-1.11-1.65-1.68-.45-.35-.73-.4-.92-.49l-.47-.05-.22-.25c-.44-.76-.97-1.11-1.5-.84-.55.28-1.29.17-1.51-.09-.18-.21-.53-.41-.83-.38-.52.05-1.15.24-1.36.48-.73.84-1.16,1.08-1.67,1.12-.31.02-.56.15-.76.5l-.21.41-.34.02c-.71.08-1.09.51-1.27.78l-.21.46-1.14,1.39c-.34.45-1.15,1.95-1.03,4.04l.18.21,1.24-.46,1.68-.85c.06-.07.99-.36,1.51.35.29.64.54.8,1.4,1.53.44.33-2.95,2.94-2.95,2.94l-.35,1.22c.79.64,1.05.94,1.84,1.78l1.48,1.77v.07c1.5,4.86,3.13,9.66,4.85,14.26,3.21,8.7,9.78,15.09,12.12,15.26,2.24.27,3.8-.41,6.07-2.87,0,0,1.01-.95,1.87-1.57.42-.3,2.26-1.7,4.1-3.4,1.76-1.63,3.52-3.55,4.32-4.49,1.58-1.85,2.82-3.9,3.94-5.89,0,0,.36-.42.32-2.06-.04-1.33-.18-2.62-.4-3.42-.22-.8-.38-2.78-2.21-4.63Z" style="fill:#fffcde; mix-blend-mode:multiply;"/><path d="M60.4,84.48c-.24.28-.29.79-.69.79-.5-.22-.15-.88.23-1.19l-.18.67.64-.27ZM61.01,85.52l-.37.89-.1.09.47-.98ZM95.22,75.88c.53,1.12-1.66,1.27-.44,2.22-.58.49-1.31.7-2.06.84-.83.96-1.72,1.81-3.14,1.61-.73,1.18-1.83,2.27-3.36,1.82-.21-.24-.45-.33-.75-.25-.24.48-.5.96-.76,1.43-3.31,5.88-8.62,11-13.97,14.72-2,2.18-4.08,3.62-6.82,3.29-2.57-.18-9.31-6.79-12.55-15.55,0,0,0-.02-.01-.03-1.75-4.68-3.36-9.45-4.85-14.29-.41-.56-.88-1.11-1.38-1.64-.75-.8-1.51-1.51-2.3-2.14-.96.29-1.82,1.57-2.96.7-.81-.7-1.43-1.5-1.57-2.53-.43-1.71,1.36-2.24,2.3-3.12-.12-2.23.73-3.67,1.13-4.2.76-.93.86-1.18,1.21-1.71.27-.42.9-.95,1.74-1.05,1.31-1.61,1.4-.32,2.71-1.91.39-.48,2.01-.94,2.41-.39.85,1.26,2.09-.87,3.22,1.1,4.37-2.54,8.47-5.27,12.67-8.14-.84-1.88-1.79-3.83-1.88-5.96l8.18-5.48c2.03.5,3.57,2.61,5.03,4.07,1.08-1.35,2.29.2,2.94,1.05.51.78.91,1.62,1.15,2.59l-.98.83c.89,2.18,1.8,4.48,2.3,6.98-2.43,2.2-5.52,3.49-8.07,5.56-2.53-.32-4.3-2.94-5.73-4.74l-.84.06-11.2,7.35c-.55.91.44,1.49.18,2.59-.34,1.88-.7,3.71-1.88,5.29.32.81.62,1.59,1.01,2.37,2.45,4.94,4.66,7.8,9.14,11.67,1,1.17,1.04,1.81,1.82,2.34,1.32-2.66.62-6.32,2.16-8.66,1.22-2.4,2.72-2.68,1.82-4.23-.68-.43-.87-1.38-.73-2.15.03-.13.06-.28.1-.4.92-2.43,4.24-3.35,4.45-6.2.57.15.69-.55,1.23-.51-.53.4-.94,1-1.15,1.58l.31.06c-.23.36-.32.72-.07.93,1.32.33,2.47-.09,3.83.06,2.16-.1,3.56,2.07,5.64,2.12.45-.06.73-.39,1.22-.6.39,0,.7.4.89.66.13.16-1.04-.65-.64.13l-.32-.08c.1.35.17.73.25,1.09.09.38.2.68.54,1.02.67-.08.62,1.01,1.23.74.12.86,1.75.31,1.3,1.45-.29.25-.85.09-1.11.34-.16-.21-.1-.39-.37-.54.28,1.11,1.11,2.05,1.71,3.02.12-.62-.59-1.24-.7-1.91l.91.97-.17-.88c.76,1.28,1.47-.02,2.08,1.17.16.35-.37.34-.41.58l-.33-.29c-.16.05-.03.24-.09.43l-.47-.7c-.57.48-.43,1.53-.21,2.28l.05-.07.17-.74c.24.61.18,1,.52,1.37.09-.29-.03-.72.15-.99.17.33.22.77.41,1.07.19-.04.31-.19.32-.39l-.03-.54.4.05-.03-.5.36-.03c.23-.35-.15-.61-.2-.92l.47-.14c-.78-.7.49-1-.1-1.78.88-.29.47-1.59.35-2.39-.11-.3-.34-.96-.34-1.33,1.07,2.45,1.37,5.62,1.06,7.89l.48-1.12c.26.63-.3,1.1.19,1.29l.36-.79.18.69c.32-.59.43-1.23.43-1.94.66.95-.37,2.13.03,2.71l.21-.24ZM78.47,40.39l.25.49.07-.14v-.07s-.32-.28-.32-.28ZM75.45,53.78l-1.3-2.01-.26.07-.02.07,1.3,2.01.28-.14ZM76.25,53.88l-3.14-4.57-.28.14,3.13,4.69.12-.13.17-.13ZM72,46.54c1.26,2.73,3.08,4.84,4.46,7.38l.31-.15-4.77-7.23ZM63.36,81.89h.2s.06-.66.06-.66l-.26.66ZM63.26,80.63l-.73,1.51.39-.31.34-1.2ZM62.83,80.44l-.67,1.12.42-.26.26-.86ZM61.9,80.81h.3c.17-.32.36-.61.36-.97-.35.11-.54.63-.66.97ZM61.99,79.35l-.25.75h.03s.36-.33.36-.33l-.13-.41ZM61.54,78.97l-.5.85.22-.02c.24-.24.61-.67.29-.84ZM60.79,79.2l.25-.02c.3-.15.2-.6.16-.72l-.41.74ZM60.27,78.36c.08-.12.25-.2.21-.34l-.24.02.02.32ZM59.46,77.66l.23-.02c.11-.15.24-.25.17-.45-.36-.12-.42.21-.4.47ZM56.75,73.92h.21c.02-.16.38-.42.08-.46l-.29.46ZM56.53,72.54l-.29.34.2-.02c.14-.07.1-.21.09-.33ZM56.08,72.34h.12c.11-.08.07-.22.09-.34l-.21.34ZM66.4,42.74l.25.29.12-.16-.25-.29-.07.06-.04.09ZM54.78,55.8c1.19.87,1.92-.93,2.86-1.14.73-.73,2.2-1,2.91-2.01,3.14-1.91,6.48-3.79,9.54-6.06l-.02-.23c-.05-.3-.39-.31-.64-.26l-14.67,9.49.02.2ZM50.64,59.38l-.08.43-.33-.31c-.02.14.02.25-.09.34-.12-.08-.19-.24-.33-.2.14.36-.29.27-.38.45.18.52.56,1.2,1.32.86.6-.27.68-1,.39-1.51-.19.07-.36,0-.51-.05ZM51.01,63.34c-.92.12-1.75.58-2.32,1.23l2.32-1.23ZM49.75,64.38l-.32.33.51-.34h-.19ZM51.2,62.8s-.05,0-.08,0c-.07,0-.14,0-.2,0h-.1c-.1.02-.18.05-.25.13.26.05.41-.09.63-.15ZM47.43,54.66c.2.46.84.75,1.33.86.68.09,1.03,1.07,1.75.93.07-.51-.73-.79-.18-1.25-.2-.04-.41.11-.54-.07l.5-.46-1.17.09.39-.45c-.47-.22-.63.52-1.03.19l.39-.45c-.56.04-.95.41-1.44.62ZM45.36,56.29c1.55.45,3.41,1.37,4.01,3.07.27-.47,1.1-.7,1.52-.64l-.34-.51c-.31.08-.53.43-.83.17.12-.35.52-.21.7-.47l-.85-.05c.13-.09.2-.32.4-.34l-.65-.07c-.05-.22.24-.16.31-.33l-.84-.05c.09-.26.35-.14.48-.34-.28,0-.61.13-.85-.05l.51-.34-1.04-.04c.08-.12.24-.16.4-.23l-.95-.04c.1-.15.24-.18.4-.23l-.96-.04.4-.34c-.67.42-2.01-.24-1.82.86ZM44.74,58.13c1.4.38,2.25,1.66,2.54,2.84.1.65.44.77.82.76h.11c.19-.03.38-.07.55-.09h.1c.09-.01.18,0,.25.03.37-.03.2-.43.38-.65-.28-.29-.27-.93-.83-.89-.09.29.22.35.16.63-.08-.06-.2-.09-.33-.08h-.13c-.27.05-.56.19-.66.37l-.12-.1c-.08-.73.72-1.18,1.27-1.44.04-.29-.13-.31-.31-.3-.14,0-.29.02-.37-.07.08-.12.24-.18.2-.35l-.73-.03s.2-.25.29-.24l-.74-.06v-.08c.07-.09.11-.27.29-.25-.03,0-.06,0-.09,0-.21.01-.44.1-.57-.07.1-.17.3-.18.4-.33l-.83.06.21-.21-.73-.06s.06-.11.13-.12c.01,0,.03,0,.06,0l-.85-.05c.08-.05.13-.16.21-.2l.09-.02s-.05,0-.06,0c-.01,0-.02.01-.03.01l-.74.15.3-.55c-.37,0-.64.33-.94.33-.07,0-.14-.02-.22-.06.05-.06.13-.09.1-.2l-.4.33c-.47.96.81.7,1.22.97ZM41.08,62.61h.2c.36-.46,1.61-.52,1.08-1.36.4.08.34-.73.72-.17l.07-.54c1.29.39,2.13,1.39,3.49,1.65.54.02.5-.51.55-.88-.35-1.27-1.01.44-1.59-.22.05-.42.14-.85.22-1.28l-.31.02-.03-.42-.63.16.18-.55-.93.41.18-.66c-.33.05-.61.44-.94.18l.09-.24-.52.15.07-.54-.61.47c-.63.58-.71,1.46-.57,2.15-.15-.07-.27-.29-.44-.28l.08,1.06c-.39.03-.06.73-.36.87ZM39.46,64.92c.66.6.96,1.56,1.65,2.2-.04-.47-.59-.8-.43-1.23l.82.89-.28-.74c-.33-.73-1.21-1.54-2.09-1.42-.21.21-.6.63-.24.97,1.42.15,1.35,1.89,2.29,2.55-.39-1.15-1.36-2.06-1.73-3.24ZM41.64,67.5c-.06-.13-.2-.09-.32-.09.21.09-.04.59.34.4l-.02-.31ZM45.29,62.5l-.24-.29c-.97.21-1.61,1.08-2.51,1.34-.82.26-1.15,1.46-2.16.8.15.52.88.81,1.13,1.27l.07-.62c1.19-.93,2.67-1.46,3.71-2.49ZM46.24,69.68l1.64-2.02c-.61-.32-.2-1.25-1.05-1.27-.07-.58.31-1.2.52-1.41l-.81.48c-1.06.53-1.98,1.62-2.21,2.57l.97-1.11c.07.56-.71.92-.6,1.61.08-.09.12-.26.29-.24.26.09,0,.28.03.42l.43.08c.07.19-.12.27-.08.43l.4-.26c.15.07.13.22.14.33l.42-.03c.07.16-.12.26-.08.42ZM75.92,87.28l-.97-.57c.23-.33.49.13.84-.06l-.58-.58.11-.12c.39.05.97.21,1.17.22l-1.32-.74c.58-.16,1.18.33,1.83.4-.21-.58-.99-.46-1.44-.85.34-.39.97.21,1.37,0l-1.23-.75c.61-.18,1.28.61,1.93.28-.59-.29-1.32-.44-1.75-.91.47-.06,1.21.33,1.71.3l-1.01-.77c.41-.17.91.16,1.39.21l-.69-.6c.35-.11.85.07,1.27.13l-1.33-.97c.33-.02.98.35,1.27.14l-.46-.5c.31-.28.79.45,1.07.03l-.69-.59c.37-.28.87.41,1.18.03l-.57-.49c.47-.49.89.33,1.27.13-.19-.27-.64-.34-.89-.66l.84-.06c.05-.45-.52-.3-.58-.72l.95.04c0-.45-.53-.41-.78-.67.42-.4.77.14,1.17.22.08-.46-1.06-.65-1.05-1.19.51.41,1.41.06,1.62.72l.11-.12c-.29-.57-1.52-.79-1.48-1.46.54.1.9.78,1.53.62l-1.56-1.35-.12-.1c.14,0,.28.02.42.08.53.21,1.06.74,1.64.92-.22-.37-.68-.67-1.09-.96l-.05-.05c-.31-.22-.54-.38-.66-.62.45.02.83.44,1.23.64.2.1.4.15.62.07l-.09-.11-.06-.05c-.61-.66-1.65-.89-2-1.59l1.29.44c-.3-.71-1.46-.84-1.68-1.44l.86.13c-.77-.56-1.68-.77-2.5-1.19.51-.32,1.25.27,1.9.28-.62-.46-1.36-.6-2.06-.88l1.15-.08-.09-.11c-.5-.24-1.69-.1-1.43-.73l-3.17-.08c-.27.13-.42.48-.72.16l.04.5c-.3.16-.39-.28-.64-.26l.23.51c-.19.41-.65-.45-.53-.07l.25.4c-.1.23-.31,0-.43-.08l.05.64c-.2.01-.3-.2-.44-.27l.16.6-.69-.41-.08.12c.3.26.17.59.47.85-.37.28-.4-.28-.8-.45-.02.48.51.61.34,1.02l-.55-.3c.03.34.46.56.26.83l-.54-.46c.05.3.27.51.37.81l-.66-.17c.02.31.49.55.28.82-.19.07-.42-.36-.43-.17.04.22.42.41.04.61l-.24-.18c.43.42.15.79-.02,1.15l-.07.2-.15-.19-.56-.69c-.04.28.05.45.19.66l.07.1c.2.31.4.53.28.88-.31-.03-.49-.89-.55-.6-.58.52.31,1.18.2,1.67-.48-.05-.25-.51-.65-.62.15.49.56.88.28,1.29l-.38-.37c0,.39.47.5.22.88l-.31-.1.56.84c-.73.31.4.84.21,1.25l-.78-.59,2.41,2.65c-.19.1-.29-.09-.42-.05-.6.27.01.59-.05.84-.34-.05-.63-.2-.87-.46l.93,1.19c-.96-.52-2.04-1.39-2.28-2.47l-.1.12.12.1c.18.49.87,1.14.24,1.66l-.12-.1c-.17-.02-.21.15-.3.22l-.72-.99c0,.67.62,1.13.44,1.76-.33-.31-.47-.75-.7-1.13.06.53.39,1.04.3,1.47l-.21-.21.03.42c.6.6-.15,1.36.26,2-.25.04-.31.2-.32.39l.02.07c0,.24.09.46.04.6h-.08c.06.84-.87,1.5-.89,2.4-.25-.77.25-1.51.13-2.34-.2.69-.2,1.42-.58,2.03l-.21-.18c.24-.52.2-1.14.3-1.7l-.57.99c-.24-.54.31-1.17.1-1.69l-.56,1.19c-.4-.39.3-.88-.03-1.2l-.06-.08-.03.08-.43.93c-.05-.28,0-.59.07-.9.07-.31.16-.62.21-.92l-.7.47c0-.45.28-.8.45-1.18-.69.08-.59,1.11-1.07,1.12l.5-1.5-.78.9c-.06-.05-.15-.1-.13-.22l-.45.76c-.2-.07-.11-.33-.15-.49-.25-.04-.54-.05-.74-.18l.55-.99.12.1c.05.22-.03.36-.07.54l.39-.45c.06.05.15.1.13.19l.53-.04c.11-.38.76-.73.33-1.18l-.21.24c-.11.03-.14-.05-.2-.1.07-.21.19-.41.15-.66l-.1.12c-.19.1-.29-.06-.43-.17.55-.49-.33-.67-.09-1.25-.8.26-.13-.63-.36-.73l-.18.24c-.49-.53-.46-.92-1.04-1.19-.03-.33-.79-.42-.37-.81l-.43-.08c-.08-.31.41-.59.13-.86-.4.23-.4,1.01-.89.8-.1-.61.91-.99.73-1.51l-.78.9c-1.38-.04.64-1.25.19-2.01-.8-.07-.78-.8-1.09-1.29l-.23-.31-.45.36-1.1.93.52-.88.32-.55-.61.57-.35.34c-.06-.1-.07-.2-.05-.31.11-.45.87-.87.78-1.2l-1.1,1.01-.09-.08.83-1.32c-.62.04-.59,1.08-1.2.93-.05-.7.75-.87,1.07-1.45-.39-1.48-.99.69-1.57.42.11-.48.68-.75.98-1.22.48-1.16-1.18-1.51-.83-2.46l-.6.15c-.07-.16.12-.23.17-.35l-.31-.06.05-.14.02-.03c.07-.19.13-.35.29-.5-.28,0-.43.54-.71.28.01-.23.25-.39.38-.56l-.64.16.36-.78c-.2-.01-.3.47-.49.15.13-.24.56-.41.37-.76-.22.07-.34.36-.53.04.25-.78-.21-1.25-.56-1.76l.15-.63-.75-.28c.18-.68,1.48-.05,1.74-.75-.11.04-.17-.04-.23-.09l.4-.39.2-.19s-.08,0-.12,0c-.04,0-.08,0-.13,0-.46.04-.97.25-1.26-.2l.1-.12s.03,0,.06,0h.06s.08-.02.12-.02h.06c.05,0,.1.02.14.1,0-.34.9-.35.48-.77.37-.25,1.1-.25,1.21-.74-.36.08-.67.45-1.05.19.16-.54.9-.32,1.21-.7l-.93-.04c-.06-.11.02-.14.07-.23h-.19c-.08-.37.8-.52,1.2-.8-1.25-.21.45-.4.36-.87-.28.04-.53.43-.83.17l.79-.7s-.04,0-.05,0c-.06,0-.12.03-.18.04h-.06c-.06,0-.11-.02-.13-.09l.39-.45-.33-.31.18-.21c-.43-.56-.27-1.33-.26-2.08l-.43-.08c-.01-.17.2-.3.3-.44l-.75.06c.03-.1.35-.34.45-.41-.64.31-1.03-.29-1.45-.47l.29-.33c0-.11,0-.25-.14-.3l-.5.46-.23-.4c-.61.07-1.34-.69-1.66-1.25l.18-.21c.15.07.25.29.44.27-.22-.08-.43-.56-.78-.53-.07,0-.14.02-.21.07-.47.4-.32,1.04-.3,1.59.37,1.32,1.81,1.8,2.69,2.32.15.5-.14.8.31,1.16-.09.23-.25.03-.38.03-.02,0-.03,0-.04,0l.33.28c-.49.04-.23.64-.52.63-.04,0-.1-.02-.16-.05.41.3-.43.31.04.61l-.4.26.21.18c-.69.19.1.59-.57.69l.45.39c-.03.07-.07.1-.12.11h-.06c-.06,0-.12-.02-.18-.01-.02,0-.04,0-.06,0,0,.14,0,.25.14.33-.64.41-1.53.56-1.92,1.29l.24.29-1.49,1.18.9-.4-.91,1.08h.02c.23-.21.51-.44.79-.47.08,0,.16,0,.25.03l-.39.4-.97.97c.4-.31.84-.82,1.3-.74l-.78.9.93-.38c-.05.43-.5.43-.67.78l.72-.05-.48.68c.09.11.47-.03.36.4h.2c.38.21-.22.36-.15.61l.61-.13c.16.24-.23.33-.16.52l.43.08-.48.77c.11.02.25-.02.31.09-.13.09-.1.2-.09.31.17.04.41-.11.53.08-.12.23-.48.37-.37.67.18.06.2.16.16.27-.09.22-.4.49-.27.78.33-.05.47-.85.89-.49-.32.28-.32.64-.67.89.3-.14.54-.66.93-.38-.51.65-1.1,1.74-1.86,1.82l.06-.32c-.95.07.45-.76.02-1.18l-.59.38c-.38-.23.2-.41.15-.66h-.2c-.2-.08-.11-.31-.15-.51-.14-.05-.24-.12-.31-.2-.36-.43-.05-1.19-.35-1.52-.33-.71-.86-1.37-.77-2.05l-.43-.19c0-.11-.05-.25.06-.32-.76.42-1.49,1.12-1.62,2l.57-.55c.36.26-.16.46-.14.74l.58-.47c.15.16-.11.43-.15.63l.41-.11c.02.28-.19.49-.28.75,1.28-.54-.26.72.31,1.12h.2s-.02.08-.02.08c-.1.48.42.64.03,1.17.12.02.33-.11.43.08-.32.64.54.8.12,1.56l.5-.04-.26.66c.13-.12.2-.34.39-.36.24.26-.16.57-.24.86l.58-.46c.26.09,0,.28.03.42l.34.08-.37.75.5-.12c-.39.42,0,.73-.11,1.16.53.3.21.66.04,1.09l.53-.52c.2.38-.19.73-.27,1.13l.52-.5c.08.36-.33.81-.32,1.29l.62-.36-.22,1.26c.45-.37,0-.71.55-.97.27.68-.53,1.24-.29,1.81.23-.32.11-.85.57-.79l-.32,1.4c.25-.3.37-.96.77-.9l-.41,1.29.48-.46c.17.49-.38.98-.4,1.52l.57-.69c.2.43-.27.88-.2,1.39l.48-.76c.22.4-.28.8-.24,1.27l.51-.26-.13.85.46-.65c.1.61-.29.86-.29,1.56l.46-.84c.25.71-.25,1.08-.08,1.77l.44-1.06c.28.76-.19,1.04-.07,1.88l.64-1.39c.02.66-.16.97-.28,1.7v.12s.05-.1.05-.1l.69-1.22c.04.49-.11,1.07-.22,1.64-.06.27-.04.08-.07.34.15-.25,0-.18.25-.35,0,0,.14-.17.16-.01.06.33.22,0,.4,0,.05,0,.1.03.14.1-.08.5-.15.99-.2,1.49l.38-.56.09.11c-.05.42-.13.85-.21,1.28l.46-.99c.18.44-.16,1.25,0,1.49l.38-.56c.3.28-.04.59.07.95l.27-.44c.31.37-.03.79.09,1.25l.37-.68c.24.24.1.58.06.84l.3-.56c.53.3-.06.73.17,1.17l.2-.35c.75-.08.52.91.64,1.44.14-.32-.04-.81.35-.98l.17,1.36c-.01-.27.08-.53.3-.66l.22,1.89c.26-.33-.15-.89.25-1.17l.28,1.13c.09-.23.16-.43.26-.66.34.45-.07.87.1,1.37l.47-.88c.07.22.08.67-.04.96.08-.08.15-.11.2-.11.27,0,.11.93.59.59-.41,1.26,1.04,1.22,1.46,1.91l.11-.09.53.38.31-.36c.17.41.36.37.64.29.14.02.3.03.46.03l.26-.02c1.03-.14,2.14-.64,2.79-1.59.96-.29.29-1.31,1.01-1.95.02,0,.03-.01.05,0,.18,0,.32.37.48.05.09-.26-.22-.32-.34-.48.35-.19.03-.4.07-.65l.49-.15-.11-.3.73-.05-.25-.29c.36-.34.59-.51.95-.51.06,0,.12,0,.19,0l-.24-.21c.29-.02.34-.52.59-.54.08-.01.19.03.33.16l-.04-.53c.12-.1.31-.43.56-.46.08-.01.16,0,.26.09-.49-.5.26-.61.34-1.06.15.04.27.21.46.18.02,0,.05-.02.08-.02-.23-.43-.14-.74-.2-1.13l.72-.17c-.18-.1-.4-.06-.55-.27l.51-.26c-.14-.04-.12-.19-.13-.3l.84-.06-.46-.5s.07-.09.14-.1c.02,0,.04,0,.07,0l-.03-.42s.06-.03.09-.03c.25-.04.48.22.68.19.06-.01.12-.05.18-.15l-.8-.56.75-.06c-.06-.22-.22-.28-.39-.34-.15-.05-.31-.1-.41-.25.2-.24.47,0,.75-.06l-.47-.7c.31,0,.73.34.93.05ZM52.55,59.75c-.12-.39-.31-.73-.51-1.12l.07.95-.54-.18v.11c.15.41.69.48.98.24ZM69.41,83.02l.33.28-.67-.68.34.4ZM76.63,88.07l-.09.31.31-.02c.04-.14-.15-.19-.22-.29ZM78.03,89.96c-.3-.31-.78-.62-1.29-.44l-.07.65c.08.3.39.36.67.37l-.03-.42.72-.16ZM83.11,80.55c.11-.09.15-.26.29-.25-.12-.16.31-.78-.15-.94.09.92-1.34.46-1.16,1.46-.67-.43.02.73-.71.58-.03.73-.51,1.05-.71,1.74-.12-.08-.18-.24-.33-.2.09.41,0,.79-.21,1.28l-.31-.07c-.13.21-.13.57-.5.46l.16.61c-.26,0-.56.12-.77-.06l.15.41c-.28.44-.7,1.2-1.18,1.15l.15.52c-.67.47-.27,1.73-1.25,1.77.44.25.92.27,1.41.4l-.25-.4.94-.07-.77-.56c.24-.13,1.1.14.95.04l-.35-.31,1.26.02c-.43-.39-1.04-.48-1.41-.85.46-.23,1.07.32,1.47.23l-1-.68c.47-.12,1.1.45,1.62.22l-1-.58c.34-.41.55.27.96.04l.05-.54.65.07-.69-.6.75-.05c-.09-.08-.26-.12-.24-.29l.72-.05-.34-.4c.61-.1.1-.26.37-.64l.65.15-.27-.6c.53.02-.2-.35.18-.54.22,0,.59.35.73.05l-.76-.36.18-.24.12.1c.63.09.26-.22.49-.57l.43.08c-.21-.49.59-1.11-.34-1.55ZM84.96,74.73l-.28.02.05.73.28-.02-.06-.73ZM88.54,76.88l-.21.02.05.65.21-.02-.05-.65ZM89.54,75.63l-.2-1.54v1.59s.2-.05.2-.05ZM90.64,78.68l-.61.73.46.04.15-.77ZM92.21,77.49c-.41-.08-.83.21-.83.5.28-.17.8-.21.83-.5ZM92.91,72.45c-.08.9-.48,1.86-.24,2.74l.23-.02c-.07-.92.45-1.8,0-2.72ZM56.05,79.53l-.29.36.28-.45v.09ZM56.18,75.56l-.58.68.41-.23.17-.45ZM60.48,85.65l-.29.36.43-1.12-.14.76ZM61.63,86.97l-.29.34.47-.98-.18.64ZM67.55,98.58l.25.18-.33-.18h.09ZM55.38,74.77l.2-.02-.29.33.09-.32ZM67.97,98.44l.11-.12-.34-.29.23.41ZM65.38,99.37l.56.62-.08.12-.48-.74ZM65.89,99.34l.47.51.08-.07-.47-.51-.08.06ZM61.47,85.92l-.29.76-.18.22.47-.98ZM58.64,80.17l.6-.79-.09-.07-.6.81.09.05ZM55.91,83.52c.04-.32.7-.68.48-.89-.24.27-.69.71-.48.89ZM58.69,78.9c-.2.36-.38.69-.58,1.02-.28-.27.38-.66.58-1.02ZM57.64,79.33l.7-.91.06.06-.68.91-.09-.05ZM55.94,82.34l-.59.9.09.05.59-.9-.09-.05ZM54.82,83.06c-.28-.27.35-.74.56-.99.07.2-.27.71-.56.99ZM54.44,82.66c-.11-.31.23-.82.58-.99.03.4-.49.64-.58.99ZM58.27,84.86c.37-.37.63-.79.77-1.26-.32.31-.79.98-.77,1.26ZM54.92,74.77l.58-.7-.07-.08-.6.71.09.08ZM59.11,84.58h-.11s.27-.56.27-.56c.32.09-.23.33-.16.56ZM57.88,78.02l-.7,1,.32-.34.38-.66ZM57.97,82.31c-.16.53-.61,1.05-.86,1.44.16-.53.4-1.2.86-1.44ZM56.74,83.14l.17-.13.65-1.22-.83,1.35ZM57.96,83.68l.28-.88-.76,1.34c.08-.12.24-.16.41-.23l.12.42.7-1.03-.75.37ZM52.54,74.74c-.29.61-.67,1.15-1.14,1.66-.12-.5.73-1.09,1.14-1.66ZM52.61,79.47c-.39-.26-.28-.64-.08-1.06l.1-.12c-.22-.3-.33.17-.53.15.15-.67.71-1.31,1.16-1.8l-.46,1.1.75-.37c.47.63-.64,1.4-.93,2.1ZM52.69,74.19l-.62.16c.04-.32.42-.48.49-.81-.63.48-1.38,1.11-1.7,1.76l.54-.04-.18.65,1.48-1.72ZM53.09,75.99c-.35-.14-.23-.44-.05-.74-.45.55-1.33,1.04-1.58,1.84l.75-.29-.46,1.12c.74-.45.91-1.29,1.35-1.93ZM54.65,74.25l-.06-.08.47-.58.09.08-.5.58ZM54.57,81.27l-.37.89.29-.37.08-.52ZM54.94,79.27l.39-.57-.09-.05-.4.55.1.08ZM54.79,78.45l-1.66,2.27.09.08,1.67-2.27-.1-.08ZM52.77,80.2c.62-.53,1.16-1.66,1.55-2.26l-1.55,2.26ZM54.42,80.74l-.48.89.39-.46.08-.44ZM54.17,80.1l-.59.9.3-.22.29-.68ZM70.87,42.36l-.02-.23-.43-.43.35.62.09.03ZM66.42,39.74l-.45.39s.21.26.36.42c0-.08-.01-.15-.01-.15,0-.03,0-.06-.01-.09,0-.08,0-.15.11-.18h.03s.05.04.05.04c.17.16.52.51.55.88v.09s-.02.1-.02.1c0,0-.3-.19-.44-.27h0c.33.99.99,1.86,1.64,2.7,0,0,.4.54.61.81h0c-.06-.47-.36-.85-.64-1.22-.3-.38-.58-.74-.61-1.19v-.1s.08.04.08.04c.41.28.66.73.89,1.16.34.66.64,1.23,1.42,1.11l-.35-.57c-.22-.33-.47-.72-.51-1.1v-.14s.08.1.08.1c.38.37.67.82.93,1.25.28.46.57.94.97,1.33l-.28-.55s-.33-.75-.33-.75l-.03-.15.12.11c1.1,1.44,2.06,2.93,3.11,4.58,1.09,1.72,2.22,3.48,3.53,5.13h0s-.12-.54-.12-.54c-.31-1.38-.66-2.94-1.56-4.68-.77-.67-1.37-1.53-1.99-2.45l-1.38-1.85s-.04-.54-.04-.54v-.18s1.21,1.74,1.21,1.74c.47.73.95,1.49,1.59,2.15h0c-.52-1.49-1.5-2.79-2.45-4.04l-.88-1.18s-3.09-2.95-3.09-2.95c-.8-.36-1.52.26-2.08.76ZM68.18,41.01l-.89-1.4.92,1.08-.02.16v.16ZM69.73,41.59l-.02-.22-.28-.19.22.4h.08ZM68.71,42.8l-.35-.51.42.3.02.23h-.09ZM70.51,42.97l1.42,2.11c-.63-.54-1.11-1.32-1.42-2.11ZM71.99,44.29c.37,0,.37.38.56.61-.34.09-.37-.42-.56-.61ZM76.13,50.66l-.02-.23-3.31-5-.11.06,3.33,5.22.11-.06ZM74.84,49.8l-.97-1.72c.41.56,1.12,1.01,1.03,1.81l-.06-.09ZM76.71,52.39l-.07-.37-1.45-2.04,1.52,2.41ZM87.65,71.09c-.4.03-.66-.03-.82-.19-.14-.14-.2-.34-.22-.57-.01-.18,0-.39,0-.6.01-.21.02-.43,0-.63-.02-.3-.1-.57-.33-.74,0,.03-.21.2-.21.2l-.03.02-.05-.03-.39-.25c-.29-.13-.51-.24-.54-.63h0s0,0,0,0c-.02.25-.17.34-.29.36h-.05s0-.07,0-.07l-.22-.97c-.08.12-.28.45-.28.45,0,0-.31-.49-.38-.59-.02.03-.07.11-.07.11,0,0-.45-.59-.46-.6,0,0,0,.02,0,.02h0c0,.1-.06.17-.13.22l-.05.04-.07-.02c-.11-.23-.3-.34-.48-.43-.24-.11-.47-.22-.51-.59.05,0-.13,0-.13,0-.09,0-.15.05-.17.12-.39-.03-.75-.29-1.05-.52l-.47-.32s.08.08.08.08c.1.09.18.17.15.33-.45,0-.97-.33-1.43-.63l-.46-.29h.26s.09,0,.17-.01l-.47-.23c-.21-.14-.42-.27-.68-.24,0,0-.14.03-.14.03,0,0,0,0,0,0,0,.05-.06.3-.06.3v.05s-.09-.02-.09-.02l-.4-.09s-.4-.08-.41-.08c-.04.02-.14.06-.28.13.04,0,.43.09.43.09.26.03.46.09.59.28l.05.08h-.52c-.45.02-.96.05-1.27-.29-.14.27-.34.28-.53.28h-.14c-.11.01-.24.05-.33.22-.06.02-.59-.02-.59-.02-1.16.29-2.16,1.15-2.9,2.5.13.25-.06.5-.24.75-.17.24-.35.48-.29.74.47.44.93.48,1.27.47h.16s.43-.08.43-.08l.49-.07s.32-.02.32-.02c.35-.03.54-.04.94.46,0-.11.05-.13.12-.16-.01,0,.17-.13.17-.13.02,0,.22-.09.22-.09,0,0,.5-.16.5-.16h.11c.26-.02.44.14.56.46-.03-.03.38-.15.38-.15.27-.03.49.09.73.22,0,0,.51.23.51.23-.03,0,.29-.15.29-.15.02,0,.41.03.41.03l.34.04c.17-.03.32-.1.35-.48v-.07s.07.03.07.03c.29.14.45.4.61.68.15.26.31.53.59.68.18-.15.24-.32.31-.51,0,0,.1-.27.1-.27l.05.12s.28.27.51.45c.23.21.46.43.85.58,0,0,0,.02,0,.03,0,.1-.06.39-.06.39.02.22.24.31.45.4.24.1.48.2.54.49,0,0,0,0,0,0h0s.15-.54.15-.54l.02-.08.06.05c.18.16.29.41.32.7,0,0,.16-.31.16-.31l.45,1.09s.47,1.17.47,1.17c0,0,0-.01,0-.01,0,0-.04-.32-.04-.32,0,0-.03-.24-.03-.24l.06-.38.08.12.56,1.43s.04.09.04.09c.46.29.59.8.64,1.49l.04.75c.02.3.06.64.18.93.11-.64.09-1.35.08-2.03-.02-.76-.01-1.55.16-2.24l.04-.13.05.12.16.77-.04,1.51-.04,1.61s.11.75.11.76c0,0,0-.01,0-.01.09-1.37.04-2.86,0-4.3,0-.02-.06-2.18-.06-2.18,0,0,.16.12.24.18h0c-.02-.06-.02-.12-.03-.18-.02-.29.08-.56.27-.68.07.02.12.23.13.23,0,0,0-.01,0-.01,0-.22.1-.34.28-.34.28,1.01.42,2.14.56,3.23,0,.01.22,1.63.22,1.65,0,0,0,0,0,0,0-.65-.01-1.34-.06-2.02-.08-1.07-.27-2.15-.74-3.07ZM75.36,65.68c.54-.24.52-.51,1.16-.28-.5.09-.7.88-1.16.28ZM76.06,64.9l.84.05.1.22-.94-.27ZM79.97,66.55c.36-.45-.09-.82-.3-1.08.33-.08.5.3.76.47l.17.72c-.2.01-.48-.04-.63-.12ZM84.45,71.03l.1-.67.2.64-.3.03ZM85.62,70.5c-.19.1-.07.29-.08.43l-.33-.29c-.08.11-.19.1-.3.1l-.03-.42c.33.37.97-.8,1.25-.18l.14-.77.25,1.89c-.5.04-.6-.52-.89-.78Z" style="fill:#002c72;"/><path d="M20.37,58.23s.15-.57.37-1.6c.23-1.04-.72-2.04-1.9-2.33-1.33-.33-2.36.22-2.62,1.15-.26.93-.42,1.85-.42,1.85l4.57.93M22.78,58.8l5.72,1.16c-.45,1.89-.7,3.92-.7,3.92l-15.19-2.49s.36-3.01,1.33-6.78c1.06-4.12,3.47-5.14,6.07-4.36,1.97.59,2.82,2.08,2.95,3.91.91-.08,2.39-.08,4.08-.4,2.51-.48,3.84-1.06,3.84-1.06,0,0-1.06,2.53-1.55,4.16-.69.58-2.59.71-6.35,1.13l-.21.81Z" style="fill:#fff;"/><path d="M118.48,70.67s-.04.59-.08,1.63c-.04,1.05,1.05,1.8,2.23,1.83,1.35.04,2.24-.71,2.33-1.66.09-.95.08-1.87.08-1.87l-4.57.07M116.04,70.63l-5.74.09c.1-1.92-.03-3.95-.03-3.95l15.17-.8s.17,2.99-.11,6.84c-.31,4.17-2.46,5.65-5.08,5.46-2-.14-3.09-1.4-3.53-3.12-.87.27-2.3.57-3.87,1.24-2.33.99-3.51,1.83-3.51,1.83,0,0,.57-2.65.74-4.33.56-.7,2.38-1.22,5.94-2.43l.05-.82Z" style="fill:#fff;"/><path d="M31.28,51.81l-13.91-6.9s1.6-3.52,3.09-5.8l10.02,3.21-6.68-8.14s1.8-2.43,3.81-4.52l11.83,10.29c-1.36,1.38-2.44,2.73-2.44,2.73l-8.42-6.48-.05.09,6.8,8.03c-1.04,1.38-1.78,2.7-1.78,2.7l-10.05-3.09-.04.08,9.14,5.17c-.58,1.01-1.32,2.63-1.32,2.63Z" style="fill:#fff;"/><path d="M86.68,31.35l7.06-14.09s3.66,1.77,5.72,3.2l-3.29,10.12,8.12-6.65s2.37,1.88,4.39,3.93l-10.31,11.81c-1.34-1.38-2.67-2.48-2.67-2.48l6.53-8.46-.09-.04-8.01,6.75c-1.36-1.06-2.66-1.82-2.66-1.82l3.16-10.12-.08-.04-5.25,9.25c-1-.59-2.64-1.36-2.64-1.36Z" style="fill:#fff;"/><path d="M99.91,41.36l11.81-10.16s2.64,3.06,3.98,5.18l-6.85,8,9.91-2.92s1.44,2.64,2.49,5.31l-13.87,6.82c-.7-1.79-1.49-3.32-1.49-3.32l9.17-5.21-.06-.08-9.86,3.07c-.83-1.51-1.73-2.72-1.73-2.72l6.74-8.06-.05-.07-8.31,6.44c-.69-.94-1.88-2.28-1.88-2.28Z" style="fill:#fff;"/><path d="M51.15,28.05c.26-1.42.21-4.28-1.2-6.75l-2.65,1.52c1.3,2.08,1.22,3.84,1.08,4.34l-4.27-1.57c1.14-2.26,1.82-3.38.77-5.14-1.27-2.14-3.68-2.2-6.04-.69-1.85,1.18-3.29,4.12-1.56,6.45.42.57,1.33.98,2.36,1.2-1.02,1.7-1.73,4.17-.57,6.1,1.52,2.54,4.85,2.61,7.04,1.38,1.57-.88,3.15-2.37,3.5-3.57l1.11.42s2.7-1.34,4.76-2.01l-4.33-1.68ZM40.02,23.72c-.43-.73-.09-1.47.5-1.8.38-.21.98-.31,1.38,0,.95.92.51,1.77-.03,2.62-.82-.1-1.46-.16-1.85-.82ZM47.08,31.17c-.21.41-.83.89-1.22,1.09-1.22.58-2.85.03-3.42-.98-.43-.76-.67-1.99-.23-2.73l4.75,1.77c.37.14.42.27.13.85Z" style="fill:#fff;"/><path d="M27.97,75.98l-3.52-.74c-.2-1.49-.37-3.42-.36-4.84l3.35-1.04s-.02-2.47.25-4.58l-15.56,4.98s0,2.91.43,6.27l16.11,3.32s-.44-1.63-.7-3.38ZM15.15,73.19l6.28-1.95c.03,1.11.14,2.42.26,3.43l-6.53-1.36v-.11Z" style="fill:#fff;"/><path d="M80.46,12.72l-8.31,14.85s1.73.06,3.5.36l1.81-3.23c1.47.28,3.35.74,4.72,1.2l-.07,3.65s2.38.76,4.29,1.7l.16-16.91s-2.76-.93-6.11-1.61ZM78.88,22.18l3.36-5.97.12.02-.12,6.79c-1.07-.32-2.36-.64-3.35-.85Z" style="fill:#fff;"/><path d="M71.66,11.64s-2.15-.13-4.81-.01l.43,6.25c-1.09.05-3.14.16-5.17.47l-.66-6.18s-2.16.23-4.76.82l2.59,15.63s1.96-.49,3.85-.74l-.68-6.38c.96-.13,2.89-.39,5.06-.43l.44,6.38s2.22-.07,3.92.08l-.19-15.88Z" style="fill:#fff;"/><path d="M122.76,50.85l-14.58,4.79c1.49,4.72,1.96,9.33,1.96,9.33l2.52-.29c-.22-2.1-1-6.02-1-6.02l3.59-.95c.56,2.65.92,5.37.92,5.37l2.69-.27c-.26-2.34-.74-4.69-.99-5.79l3.45-.92s.91,3.47,1.26,7.23l2.64-.21c-.59-6.77-2.48-12.27-2.48-12.27Z" style="fill:#fff;"/><path d="M30.9,96.25l1.06-.71-2.51-3.77-1.06.71s.73,1.1.83,1.24c-.16.11-4.45,2.97-4.45,2.97l.86,1.29s4.29-2.86,4.45-2.97c.1.15.83,1.24.83,1.24Z" style="fill:#fff;"/><path d="M33.94,97.96s-1.83,1.52-1.98,1.64c-.11-.13-.74-.9-.85-1.03.15-.12,1.98-1.64,1.98-1.64l-.99-1.19-5.1,4.22.99,1.19s2.06-1.7,2.21-1.82c.11.13.74.9.85,1.03-.15.12-2.21,1.82-2.21,1.82l.99,1.19,5.1-4.22-.99-1.19Z" style="fill:#fff;"/><path d="M35.71,101.62c.13.13,1.54,1.52,1.54,1.52l.84-.85-2.64-2.6-4.65,4.72,2.69,2.65.84-.85s-1.46-1.44-1.59-1.57c.12-.12,1.05-1.07,1.17-1.19.13.13,1.42,1.4,1.42,1.4l.84-.85s-1.29-1.27-1.42-1.4c.12-.12.85-.86.97-.98Z" style="fill:#fff;"/><path d="M40.15,106.08c.11-.15.24-.24.38-.26.14-.02.29.03.44.14.3.22.27.51-.1,1.01l-.06.08,1.21.9.06-.07c.44-.52.63-.99.58-1.46-.05-.48-.36-.92-.94-1.35-1.18-.88-2.16-.81-2.92.21-.68.91-.25,1.88.08,2.66.26.59.48,1.11.22,1.47-.12.17-.27.27-.42.29-.14.02-.27-.02-.42-.13-.18-.13-.27-.26-.29-.4-.04-.24.14-.5.38-.81l.06-.08-1.24-.92-.06.07c-.49.58-.7,1.1-.64,1.59.05.48.37.94.94,1.36.81.6,2,1.23,3.05-.18.71-.96.27-1.91-.08-2.67-.27-.58-.5-1.08-.22-1.45Z" style="fill:#fff;"/><path d="M46.58,109.83l.65-1.09-3.89-2.33-.65,1.09s1.13.67,1.28.77c-.1.17-2.75,4.59-2.75,4.59l1.33.79s2.65-4.42,2.75-4.59c.15.09,1.28.77,1.28.77Z" style="fill:#fff;"/><path d="M48.18,109.18l-4.51,5.18,1.39.66s.85-1.02.94-1.12c.13.06,1.38.66,1.51.72-.03.14-.29,1.44-.29,1.44l1.47.7,1.24-6.75-1.74-.83ZM48.21,111.15c-.12.56-.45,2.06-.5,2.25-.17-.08-.76-.36-.92-.44.12-.16,1.07-1.36,1.42-1.81Z" style="fill:#fff;"/><path d="M54.97,111.94s-1.05,3.07-1.3,3.82c-.03-.8-.16-4.32-.16-4.32l-1.88-.64-2.14,6.27,1.38.47s1.11-3.27,1.38-4.05c.02.83.13,4.56.13,4.56l1.84.63,2.14-6.27-1.38-.47Z" style="fill:#fff;"/><path d="M59.24,113.05l-2.29-.49-1.38,6.48,2.24.48c.65.14,1.21.06,1.65-.22.83-.54,1.07-1.71,1.21-2.41l.03-.17c.43-2.03.33-3.28-1.46-3.66ZM58.8,114.18c.43.09.58.38.58.85,0,.36-.09.83-.21,1.4-.21.97-.4,1.61-.74,1.83-.15.1-.32.12-.56.06,0,0-.36-.07-.53-.11.04-.19.84-3.96.88-4.15.15.03.58.12.58.12Z" style="fill:#fff;"/><path d="M63.27,113.73l-2.47,6.41,1.53.15s.45-1.25.5-1.38c.14.01,1.52.15,1.66.16.02.14.22,1.45.22,1.45l1.62.16-1.14-6.77-1.92-.19ZM64.28,117.85c-.18-.02-.83-.08-1.02-.1.06-.19.54-1.65.71-2.19.07.56.28,2.09.3,2.29Z" style="fill:#fff;"/><path d="M71.28,118.64c-.01-.9-.52-1.18-.91-1.28.58-.24.89-.74.89-1.52v-.05c0-.58-.18-1.05-.49-1.35-.28-.27-.67-.41-1.14-.4l-2.58.04.11,6.62,1.55-.02s-.04-2.47-.04-2.66c.1,0,.24,0,.24,0,.32,0,.53.05.67.18.2.2.2.56.21.97v.32c0,.37,0,.75.17,1.11l.03.06,1.54-.03-.07-.14c-.1-.21-.16-1.2-.17-1.84ZM69.7,115.96v.02c0,.22-.05.82-.57.83,0,0-.35,0-.49,0,0-.17-.02-1.41-.03-1.58.14,0,.49,0,.49,0,.18,0,.32.04.41.13.12.11.18.32.18.6Z" style="fill:#fff;"/><path d="M76.73,116.72c-.13-1.07-.33-2.14-.99-2.66-.38-.3-.89-.41-1.56-.33l-2.33.27.77,6.58,2.27-.26c.66-.08,1.16-.33,1.49-.74.61-.78.46-1.96.37-2.67l-.02-.17ZM74.02,119.2c-.02-.19-.47-4.02-.49-4.21.15-.02.59-.07.59-.07.21-.02.38.01.52.12.37.29.46,1.07.55,1.89.05.43.08.8.08,1.1,0,.4-.05.69-.19.87-.11.14-.27.21-.51.24,0,0-.36.04-.54.06Z" style="fill:#fff;"/><path d="M80.93,112.28c-2.23.62-1.77,2.29-1.32,3.91h0c.45,1.62.91,3.29,3.14,2.67,2.23-.62,1.77-2.29,1.32-3.91-.45-1.62-.91-3.29-3.14-2.67ZM82.44,117.75c-.18.05-.33.04-.45-.03-.34-.19-.56-.83-.87-1.94-.31-1.11-.44-1.78-.25-2.11.07-.13.19-.21.37-.26.18-.05.33-.04.45.03.34.19.56.83.87,1.94.44,1.6.49,2.2-.12,2.37Z" style="fill:#fff;"/><path d="M87.95,112.73s-1.6.62-1.77.69c-.06-.16-.46-1.19-.52-1.34.17-.07,1.86-.72,1.86-.72l-.43-1.11-3.3,1.28,2.39,6.17,1.44-.56s-.94-2.43-1.01-2.61c.17-.07,1.77-.69,1.77-.69l-.43-1.11Z" style="fill:#fff;"/><path d="M94.17,110.14c0-.35-.11-.74-.34-1.15-.34-.61-.74-.99-1.2-1.12-.41-.12-.87-.04-1.36.23l-2.2,1.22,3.21,5.79,1.35-.75s-1.17-2.12-1.27-2.29c.14-.08.78-.43.78-.43.69-.38,1.03-.89,1.03-1.5ZM92.48,109.78c.08.14.12.3.12.45,0,.21-.08.4-.25.49,0,0-.43.24-.56.31-.08-.15-.71-1.27-.79-1.42.13-.07.5-.28.5-.28.4-.22.69-.08.98.44Z" style="fill:#fff;"/><path d="M96.85,104.42l-1.27.89,2.63,3.73c.22.31.31.59.28.81-.03.17-.13.31-.31.44-.17.12-.33.16-.49.13-.23-.04-.45-.22-.67-.53l-2.63-3.73-1.26.89,2.68,3.8c.76,1.08,1.88,1.22,3.07.38,1.73-1.22.95-2.61.67-3.01l-2.68-3.8Z" style="fill:#fff;"/><path d="M103.5,104.78c-.59-.67-1.16-.56-1.52-.39.1-.2.17-.4.17-.61,0-.38-.17-.77-.51-1.16-.74-.84-1.63-.94-2.38-.28l-1.94,1.7,4.37,4.97,1.16-1.02s-1.63-1.85-1.75-2c.08-.07.18-.16.18-.16.24-.21.44-.31.63-.29.28.02.52.29.79.61l.21.24c.24.28.49.57.85.73l.06.03,1.16-1.02-.15-.07c-.21-.09-.9-.81-1.32-1.29ZM100.86,104.4c0,.13-.05.26-.18.38,0,0-.24.21-.37.32-.11-.13-.93-1.06-1.04-1.19.11-.09.37-.32.37-.32.2-.18.49-.32.93.17.09.1.3.37.3.64Z" style="fill:#fff;"/><rect x="103.09" y="99.18" width="1.55" height="6.62" transform="translate(-42.02 105.65) rotate(-45.86)" style="fill:#fff;"/><path d="M110.44,95.89s-2.43-3.82-2.43-3.82l-.08-.13-.9,1.32s1.28,1.82,1.54,2.2c-.44-.12-2.58-.68-2.58-.68l-.77,1.14-2.9,3.47.98.82s.84-1.01.96-1.15c.15.13,4.11,3.43,4.11,3.43l.99-1.19s-3.95-3.3-4.1-3.43c.11-.14.96-1.14.96-1.14l-.48-.4c1.26.28,3.83.84,3.86.85.03.02,1.9,1.3,1.9,1.3l.87-1.28-1.92-1.31Z" style="fill:#fff;"/><g style="mix-blend-mode:darken;"><path d="M116.48,117.78h-1.22v-.61h3.25v.61h-1.2v3.95h-.82v-3.95Z" style="fill:#002c72;"/><path d="M118.97,117.17h1.28l.91,3.38h.01l.89-3.38h1.25v4.57h-.78v-3.8h-.01l-1.04,3.8h-.69l-1.03-3.8h-.01v3.8h-.78v-4.57Z" style="fill:#002c72;"/></g><g style="mix-blend-mode:darken;"><path d="M85.97,88.81h-1.22v-.61h3.24v.61h-1.2v3.95h-.82v-3.95Z" style="fill:#002c72;"/><path d="M88.45,88.2h1.28l.91,3.38h.01l.89-3.38h1.25v4.57h-.78v-3.8h-.01l-1.04,3.8h-.69l-1.04-3.8h-.01v3.8h-.78v-4.57Z" style="fill:#002c72;"/></g></g></g></g></svg>