<svg width="195" height="194" viewBox="0 0 195 194" fill="none" xmlns="http://www.w3.org/2000/svg">
<path fill-rule="evenodd" clip-rule="evenodd" d="M194.016 97.0045C194.016 150.574 150.581 194.001 97.0081 194.001C43.4273 194.001 0 150.574 0 97.0045C0 43.4321 43.4273 0 97.0081 0C150.581 0 194.016 43.4321 194.016 97.0045Z" fill="#CD1442"/>
<path fill-rule="evenodd" clip-rule="evenodd" d="M152.046 96.9967C152.046 66.6033 127.402 41.9668 97.008 41.9668C66.6146 41.9668 41.9697 66.6033 41.9697 96.9967C41.9697 127.394 66.6146 152.031 97.008 152.031C127.402 152.031 152.046 127.394 152.046 96.9967Z" fill="white"/>
<path d="M97.0078 186.873C47.4505 186.873 7.12804 146.551 7.12804 96.997C7.12804 47.4438 47.4505 7.1256 97.0078 7.1256C146.565 7.1256 186.887 47.4438 186.887 96.997C186.887 146.551 146.565 186.873 97.0078 186.873ZM97.0042 4.46387C45.9816 4.46387 4.46631 45.9749 4.46631 96.997C4.46631 148.027 45.9816 189.539 97.0042 189.539C148.034 189.539 189.549 148.027 189.549 96.997C189.549 45.9749 148.034 4.46387 97.0042 4.46387Z" fill="white"/>
<path d="M116.715 103.156C114.047 100.468 111.175 99.7375 110.263 99.5249C109.352 99.3123 105.9 99.0668 104.703 99.2231C103.503 99.3872 101.724 99.9345 101.422 100.718C101.165 101.371 100.897 102.258 100.173 103.141C99.6211 103.824 98.7307 104.905 98.1001 106.146C96.9522 107.895 96.7091 110.024 96.43 112.395C96.1725 114.602 96.0276 117.089 95.0468 119.058L94.6593 119.837L93.9539 119.344C93.1862 118.815 92.8252 118.226 92.4036 117.544L91.1245 115.747C84.5214 110.065 81.192 105.808 77.4829 98.3057L76.0362 94.9164L76.0392 94.5104C77.744 92.2283 78.4931 89.5924 78.9105 86.748C79.0446 86.1737 78.9069 85.5246 78.7165 85.0252C78.459 84.3354 78.2464 83.4892 78.5338 82.3928L78.5117 81.6772L78.262 80.6856C78.0859 80.4059 76.8973 79.034 75.82 78.1951C75.1559 77.6729 74.7385 77.6059 74.4625 77.4639L73.7691 77.3933L73.4445 77.028C72.796 75.9016 72.0056 75.3759 71.2223 75.7825C70.3983 76.1969 69.3097 76.025 68.9893 75.6447L67.7552 75.0854C66.9797 75.1603 66.0551 75.4393 65.7491 75.7867C64.6719 77.0352 64.0269 77.3933 63.2772 77.4418C62.8227 77.4789 62.4461 77.6729 62.155 78.1837L61.8532 78.7951L61.3496 78.8322C60.3023 78.952 59.7316 79.5897 59.467 79.9885L59.1574 80.667L57.4759 82.7245C56.9759 83.3886 55.7795 85.6144 55.9513 88.7163L56.2196 89.0366L58.0538 88.351L60.552 87.0833C60.6418 86.9785 62.0173 86.5504 62.7814 87.6091C63.2179 88.5636 63.5946 88.7911 64.8545 89.8798C65.4994 90.3714 60.4849 94.2344 60.4849 94.2344L59.967 96.0428C61.1412 96.9823 61.5251 97.4368 62.6958 98.6818L64.8916 101.293L64.9066 101.403C67.1174 108.608 69.5259 115.713 72.0762 122.536C76.841 135.429 86.5759 144.899 90.0467 145.138C93.3539 145.54 95.6659 144.534 99.0283 140.887C99.0283 140.887 100.524 139.481 101.799 138.568C102.425 138.117 105.154 136.051 107.876 133.531C110.486 131.118 113.088 128.267 114.27 126.876C116.608 124.132 118.45 121.097 120.116 118.133C120.116 118.133 120.653 117.514 120.583 115.091C120.523 113.114 120.314 111.202 119.993 110.028C119.673 108.85 119.438 105.908 116.715 103.156Z" fill="#FDDDCB"/>
<path d="M122.148 99.8718L122.026 100.505L121.533 100.077L121.09 100.237L121.045 99.6143C121.537 100.17 122.488 98.425 122.894 99.3568L123.103 98.2238L123.476 101.024C122.734 101.076 122.585 100.252 122.148 99.8718ZM120.4 100.651L120.552 99.652L120.847 100.606L120.4 100.651ZM113.767 94.0141C114.3 93.3548 113.637 92.8063 113.327 92.4183C113.809 92.2919 114.062 92.8626 114.453 93.1195L114.7 94.1896L113.767 94.0141ZM107.98 91.5614L109.229 91.6356L109.379 91.9638L107.98 91.5614ZM106.944 92.7207C107.75 92.3704 107.72 91.956 108.659 92.2997C107.917 92.4339 107.631 93.6153 106.944 92.7207ZM125.158 100.729C124.561 100.777 124.177 100.684 123.942 100.45L123.621 99.6107L123.632 98.7304L123.647 97.7915L123.156 96.6879L122.85 96.9897L122.809 97.0196L122.734 96.9675L122.168 96.598C121.735 96.4046 121.403 96.2477 121.362 95.6735L121.354 95.6663L121.351 95.6771L120.922 96.21L120.851 96.2327L120.836 96.1022L120.512 94.6669L120.105 95.3267L119.542 94.4543L119.43 94.6261L118.748 93.7309L118.737 93.7572V93.7722L118.554 94.0812L118.479 94.1411L118.379 94.1117L117.667 93.489C117.309 93.3207 116.97 93.1566 116.91 92.6087L116.72 92.6165L116.47 92.8027C115.889 92.7656 115.363 92.374 114.9 92.0273L114.207 91.5572L114.327 91.6734L114.551 92.1614C113.89 92.1728 113.118 91.6692 112.437 91.2261L111.758 90.8003L112.149 90.7895L112.406 90.7781L111.698 90.4392L110.684 90.0811L110.479 90.1296L110.49 90.1446L110.404 90.5805L110.39 90.6518L110.277 90.6141L109.689 90.4871L109.085 90.3715L108.659 90.5584L109.308 90.6925L110.18 91.1135L110.255 91.2261H109.472C108.812 91.2668 108.063 91.3075 107.594 90.7931L106.803 91.2147L106.598 91.2261L106.105 91.535L105.229 91.5015C103.514 91.9267 102.019 93.2015 100.923 95.204L100.576 96.3112L100.14 97.4148C100.841 98.0675 101.52 98.1304 102.031 98.1082L102.258 98.0897L102.892 97.9891L103.619 97.8771L104.089 97.8472C104.614 97.8064 104.894 97.7915 105.479 98.5298L105.651 98.2909L105.911 98.1011L106.236 97.9741L106.985 97.7316L107.153 97.7166C107.533 97.7058 107.805 97.9328 107.984 98.4214L108.548 98.1981L109.637 98.5298L110.39 98.8687L110.821 98.6454L111.437 98.7011L111.933 98.7609C112.183 98.7196 112.403 98.619 112.458 98.0442L112.463 97.9328L112.56 97.9849L113.469 98.9921L114.334 99.9873L114.796 99.234L114.942 98.831L115.02 99.0101L115.777 99.6813C116.116 100.002 116.455 100.323 117.036 100.535L117.048 100.573L116.952 101.147L117.619 101.736L118.428 102.471V102.467L118.648 101.669L118.678 101.553L118.771 101.635L119.248 102.675L119.49 102.217L120.158 103.839L120.858 105.565L120.863 105.558L120.811 105.087L120.766 104.737L120.858 104.178L120.97 104.365L121.809 106.486L121.869 106.613C122.551 107.041 122.742 107.81 122.82 108.823L122.879 109.938L123.147 111.31C123.316 110.363 123.294 109.311 123.271 108.302C123.245 107.179 123.256 105.993 123.505 104.972L123.573 104.786L123.651 104.972L123.886 106.117L123.83 108.346L123.77 110.74L123.938 111.862L123.945 111.847C124.091 109.811 124.009 107.604 123.938 105.465L123.853 102.239L124.206 102.504L124.169 102.243L124.572 101.225L124.754 101.575L124.763 101.553L125.176 101.061C125.593 102.56 125.802 104.23 126.004 105.844L126.336 108.29L126.339 108.276C126.336 107.313 126.32 106.299 126.242 105.282C126.13 103.693 125.847 102.101 125.158 100.729ZM108.939 73.0311L108.838 72.4909L106.683 69.4555L108.939 73.0311ZM106.161 69.1908L104.722 66.6411C105.327 67.4687 106.377 68.1285 106.258 69.3292L106.161 69.1908ZM108.078 70.4663L108.052 70.1304L103.141 62.7224L102.984 62.8195L107.917 70.5555L108.078 70.4663ZM101.952 61.0188C102.508 61.0296 102.496 61.5817 102.772 61.917C102.277 62.0584 102.216 61.3021 101.952 61.0188ZM99.7562 59.0691L101.855 62.1967C100.923 61.3913 100.218 60.2356 99.7562 59.0691ZM97.0789 58.808L96.5646 58.0511L97.1909 58.4948L97.2173 58.8224L97.0789 58.808ZM98.5898 57.0145L98.5634 56.6828L98.1454 56.3996L98.4772 56.9996L98.5898 57.0145ZM96.2963 56.1606L94.9759 54.0875L96.337 55.6876L96.2999 55.9109L96.2963 56.1606ZM93.686 54.2851L93.0226 54.8708L93.5483 55.4894L93.5262 55.2696L93.5112 55.1277L93.6675 54.8558L93.7088 54.8408L93.7908 54.9157C94.0405 55.1576 94.5627 55.6684 94.6034 56.2163L94.5998 56.3433L94.5735 56.493L93.925 56.0864H93.9286C94.4094 57.5553 95.4017 58.8373 96.3634 60.0823L97.2622 61.2835C97.1723 60.5823 96.7328 60.0188 96.3071 59.4751C95.8633 58.905 95.4538 58.3714 95.4088 57.7151L95.3903 57.5589L95.5208 57.6259C96.128 58.0475 96.5047 58.7074 96.8406 59.3523C97.3442 60.332 97.7802 61.1751 98.9431 60.9925L98.4251 60.1499C98.1005 59.6505 97.7281 59.0876 97.6754 58.5242L97.6568 58.3194L97.8023 58.4613C98.3616 59.0056 98.7868 59.6841 99.182 60.3176C99.5994 61.0038 100.032 61.7045 100.617 62.2823L100.204 61.4661L99.7155 60.3553L99.67 60.1314L99.8491 60.2919C101.475 62.4314 102.899 64.6273 104.458 67.077C106.079 69.6238 107.742 72.2412 109.689 74.679V74.6754L109.51 73.885C109.05 71.8424 108.529 69.5268 107.195 66.9543C106.05 65.962 105.174 64.6836 104.241 63.3302L102.19 60.5823L102.131 59.7811L102.116 59.5164L103.925 62.0925C104.622 63.1769 105.334 64.3033 106.285 65.2764V65.2686C105.516 63.0728 104.058 61.1452 102.649 59.2846L101.348 57.5361L96.77 53.163C95.5843 52.6222 94.5286 53.5468 93.686 54.2851ZM100.282 58.1667L100.256 57.8349L99.6257 57.1972L100.144 58.1217L100.282 58.1667ZM75.5366 114.084L74.6527 115.415L75.1006 115.095L75.5366 114.084ZM75.9096 115.034L75.1898 116.355L75.7827 115.68L75.9096 115.034ZM73.4677 114.237C74.3886 113.443 75.1898 111.773 75.7713 110.882L73.4677 114.237ZM76.4575 111.638L73.997 115.005L74.1311 115.121L76.5995 111.758L76.4575 111.638ZM76.6809 112.85L77.2552 112.004L77.121 111.925L76.5396 112.731L76.6809 112.85ZM76.1372 115.818L75.5887 117.134L76.0216 116.594L76.1372 115.818ZM76.2521 105.416L76.1629 105.289L76.8641 104.435L76.9947 104.55L76.2521 105.416ZM73.9485 107.996C73.4185 107.794 73.6018 107.35 73.8665 106.903C73.2024 107.716 71.8946 108.447 71.5179 109.621L72.6287 109.197L71.9497 110.863C73.0425 110.192 73.2922 108.946 73.9485 107.996ZM73.3407 105.326L72.4233 105.561C72.4796 105.095 73.0539 104.845 73.1431 104.365C72.2149 105.069 71.0963 106.005 70.6191 106.978L71.4209 106.918L71.1448 107.869L73.3407 105.326ZM73.2215 113.149C72.6359 112.764 72.8078 112.205 73.1096 111.59L73.2551 111.411L72.4682 111.634C72.6922 110.643 73.5162 109.688 74.1796 108.961L73.5012 110.583L74.6012 110.028C75.3018 110.96 73.6503 112.097 73.2215 113.149ZM73.1245 106.14C72.6922 107.049 72.1287 107.843 71.4353 108.6C71.2568 107.858 72.5167 106.978 73.1245 106.14ZM81.1517 119.393L81.5654 118.1L80.4397 120.087L81.0511 119.751L81.2223 120.37L82.2553 118.849L81.1517 119.393ZM79.3546 118.596L79.6043 118.409L80.5738 116.594L79.3546 118.596ZM81.1666 117.361C80.9355 118.141 80.2642 118.913 79.8875 119.49C80.1301 118.715 80.4768 117.712 81.1666 117.361ZM81.0469 111.005L80.0109 112.477L80.4804 111.974L81.0469 111.005ZM82.8595 120.717L82.699 120.732L83.0978 119.893C83.5751 120.031 82.7547 120.382 82.8595 120.717ZM76.6551 106.187L77.5121 105.143L77.4156 105.028L76.5174 106.068L76.6551 106.187ZM81.6211 121.149C82.1732 120.594 82.5493 119.979 82.7547 119.278C82.281 119.74 81.5918 120.732 81.6211 121.149ZM75.9432 117.876C75.7827 117.413 76.2785 116.661 76.8078 116.41C76.8492 116.996 76.0773 117.358 75.9432 117.876ZM78.1654 117.406L77.2851 118.748L77.4114 118.819L78.2953 117.485L78.1654 117.406ZM80.6744 112.936L81.7223 111.59L81.8151 111.664L80.8127 113.018L80.6744 112.936ZM82.2403 112.317C81.9421 112.843 81.6774 113.331 81.3756 113.819C80.9612 113.424 81.9421 112.843 82.2403 112.317ZM78.1198 119.163C78.1755 118.682 79.157 118.145 78.8288 117.835L78.1198 119.163ZM82.1696 114.185L83.0571 113.018L82.9229 112.906L82.0313 114.114L82.1696 114.185ZM86.3601 122.712L85.935 123.841L85.6667 124.166L86.3601 122.712ZM92.9106 142.595L93.604 143.352L93.7202 143.248L93.0298 142.502L92.9106 142.595ZM92.1501 142.651L92.9812 143.565L92.8663 143.736L92.1501 142.651ZM95.9981 141.26L96.1544 141.077L95.655 140.652L95.9981 141.26ZM77.3366 106.18L77.6246 106.161L77.1995 106.661L77.3366 106.18ZM95.3717 141.476L95.7334 141.745L95.2448 141.48L95.3717 141.476ZM86.6027 124.263L86.1739 124.762L86.8745 123.308L86.6027 124.263ZM84.8913 122.313L84.4625 122.85L85.0996 121.187L84.8913 122.313ZM78.527 107.362L77.6618 108.368L78.2696 108.025L78.527 107.362ZM78.3175 113.242L77.8965 113.778L78.3073 113.107L78.3175 113.242ZM132.942 102.75C132.819 104.093 132.237 105.513 132.592 106.817L132.931 106.792C132.831 105.431 133.602 104.122 132.942 102.75ZM131.905 110.21C131.295 110.091 130.679 110.528 130.672 110.96L131.905 110.21ZM129.579 111.982L128.674 113.059L129.359 113.119L129.579 111.982ZM127.954 107.462L127.659 105.184L127.652 107.534L127.954 107.462ZM126.466 109.323L126.157 109.349L126.224 110.307L126.541 110.288L126.466 109.323ZM121.161 106.135L120.747 106.165L120.821 107.25L121.242 107.216L121.161 106.135ZM118.428 114.759L118.857 114.39C118.674 114.155 119.308 113.242 118.632 112.996C118.771 114.36 116.646 113.682 116.914 115.161C115.918 114.528 116.952 116.24 115.855 116.027C115.818 117.112 115.098 117.574 114.8 118.603L114.315 118.297C114.453 118.913 114.327 119.464 114.006 120.203L113.543 120.102C113.346 120.412 113.349 120.948 112.801 120.787L113.04 121.682L111.903 121.601L112.116 122.208C111.706 122.86 111.086 123.982 110.367 123.908L110.598 124.691C109.606 125.381 110.199 127.253 108.752 127.312C109.401 127.681 110.121 127.718 110.837 127.905L110.456 127.312L111.858 127.204L110.725 126.384L112.131 126.444L111.609 125.992L113.48 126.011C112.85 125.441 111.933 125.296 111.389 124.751C112.071 124.412 112.966 125.217 113.569 125.09L112.086 124.079C112.783 123.901 113.719 124.751 114.479 124.401L113.007 123.55C113.499 122.935 113.823 123.95 114.424 123.614L114.49 122.816L115.445 122.917L114.427 122.036L115.542 121.955L115.188 121.523L116.258 121.448L115.762 120.855C116.66 120.706 115.896 120.471 116.31 119.897L117.287 120.117L116.884 119.233C117.671 119.263 116.597 118.718 117.156 118.428L118.245 118.51L117.123 117.966L117.387 117.622L117.563 117.775C118.491 117.909 117.954 117.455 118.29 116.929L118.931 117.052C118.621 116.321 119.8 115.404 118.428 114.759ZM110.893 128.699C110.438 128.233 109.744 127.786 108.976 128.044L108.876 129.009L109.871 129.557L109.819 128.942L110.893 128.699ZM108.82 125.9L108.682 126.366L109.132 126.332L108.82 125.9ZM98.1227 118.42L98.6041 118.834L97.6197 117.831L98.1227 118.42ZM73.1317 83.9289C72.9605 83.3588 72.6772 82.8408 72.3826 82.2774L72.4832 83.6834L71.6814 83.4145L71.6964 83.5714C71.9089 84.1828 72.6958 84.2948 73.1317 83.9289ZM107.773 124.732L106.337 123.879C106.673 123.39 107.06 124.076 107.578 123.785L106.721 122.935L106.877 122.764C107.463 122.834 108.316 123.07 108.611 123.088L106.65 121.984C107.507 121.754 108.398 122.481 109.356 122.578C109.043 121.724 107.895 121.895 107.227 121.321C107.727 120.743 108.659 121.627 109.267 121.333L107.437 120.217C108.335 119.949 109.338 121.124 110.296 120.635C109.427 120.203 108.335 119.99 107.701 119.289C108.402 119.203 109.491 119.777 110.233 119.725L108.734 118.588C109.338 118.339 110.08 118.819 110.792 118.897L109.774 118.014C110.296 117.854 111.031 118.125 111.653 118.212L109.689 116.772C110.18 116.731 111.124 117.291 111.564 116.97L110.885 116.228C111.348 115.821 112.059 116.888 112.466 116.272L111.444 115.4C112 114.982 112.742 116.012 113.2 115.438L112.351 114.703C113.048 113.987 113.682 115.192 114.237 114.897C113.958 114.502 113.279 114.39 112.921 113.916L114.159 113.824C114.237 113.155 113.376 113.387 113.297 112.764L114.707 112.828C114.7 112.164 113.916 112.22 113.555 111.832C114.173 111.243 114.692 112.041 115.281 112.164C115.4 111.485 113.712 111.198 113.734 110.404C114.494 111.016 115.821 110.501 116.142 111.471L116.299 111.299C115.866 110.464 114.054 110.135 114.103 109.133C114.909 109.279 115.434 110.282 116.373 110.043L114.069 108.052L113.89 107.907L114.51 108.014C115.288 108.32 116.075 109.114 116.952 109.383C116.623 108.831 115.937 108.398 115.333 107.955L115.259 107.88C114.796 107.56 114.461 107.321 114.278 106.959C114.942 106.996 115.505 107.608 116.094 107.899L117.011 107.999L116.877 107.843L116.791 107.768C115.881 106.788 114.342 106.445 113.831 105.408L115.751 106.061C115.295 105.01 113.581 104.816 113.26 103.92L114.524 104.114C113.383 103.291 112.03 102.97 110.821 102.351C111.579 101.874 112.674 102.75 113.633 102.762C112.716 102.087 111.612 101.874 110.587 101.456L112.283 101.33L112.152 101.169C111.411 100.811 109.637 101.02 110.032 100.084L105.322 99.9724C104.92 100.166 104.707 100.677 104.264 100.211L104.32 100.956L103.376 100.573L103.716 101.33C103.432 101.937 102.758 100.662 102.925 101.225L103.295 101.825L102.668 101.706L102.735 102.653L102.079 102.247L102.317 103.141L101.289 102.534L101.169 102.713L101.866 103.966C101.322 104.379 101.277 103.541 100.681 103.291C100.647 104.007 101.434 104.2 101.191 104.808L100.368 104.365C100.409 104.864 101.053 105.192 100.755 105.587L99.9497 104.898L100.498 106.102L99.5173 105.844L99.9389 107.067L99.3011 106.817C99.3646 107.138 99.9317 107.433 99.3646 107.716L99.0143 107.459C99.6556 108.078 99.2341 108.629 98.9802 109.159L98.8724 109.465L98.6484 109.185L97.8245 108.167L98.1047 109.144L98.2125 109.297C98.5179 109.748 98.8011 110.08 98.6221 110.603C98.1604 110.557 97.9029 109.286 97.8095 109.707C96.9526 110.482 98.2718 111.467 98.1161 112.179C97.3999 112.108 97.7502 111.426 97.1574 111.258C97.3736 111.997 97.9736 112.563 97.5676 113.178L97.0083 112.641C97.0083 113.219 97.7059 113.372 97.3286 113.935L96.8706 113.789L97.7059 115.039C96.6166 115.494 98.2945 116.284 98.0113 116.884L96.8592 116.012L100.435 119.945L99.8047 119.867C98.9173 120.269 99.8263 120.746 99.7263 121.116C99.2227 121.037 98.7975 120.821 98.4251 120.43L99.8083 122.193C98.3802 121.429 96.7885 120.131 96.4196 118.54L96.2663 118.718L96.4454 118.871C96.7178 119.598 97.7388 120.557 96.7993 121.333L96.6166 121.187L96.1807 121.515L95.122 120.05C95.1142 121.045 96.0388 121.727 95.7669 122.663C95.2819 122.205 95.0621 121.548 94.7376 120.989C94.8274 121.772 95.304 122.529 95.1855 123.159L94.8723 122.85L94.9202 123.476C95.8148 124.363 94.6891 125.481 95.2969 126.436L94.8274 127.014L94.8531 127.115L94.9202 128.002L94.7939 128.009C94.8831 129.247 93.507 130.224 93.4777 131.559C93.101 130.422 93.8507 129.326 93.6753 128.096C93.3729 129.11 93.3729 130.198 92.8214 131.104L92.5046 130.839C92.8663 130.068 92.7992 129.15 92.9483 128.319L92.098 129.788C91.7477 128.983 92.5531 128.054 92.2471 127.283L91.4195 129.053C90.8231 128.465 91.8704 127.748 91.371 127.268L91.2854 127.148L91.2441 127.275L90.5992 128.647C90.5285 128.237 90.5992 127.778 90.7111 127.316C90.8117 126.861 90.9572 126.402 91.0201 125.959L89.9956 126.656C89.9914 125.992 90.4051 125.467 90.6554 124.908C89.6297 125.027 89.783 126.548 89.074 126.559L89.8237 124.348L88.6752 125.676L88.4889 125.355L87.8218 126.488L87.6021 125.757L86.4979 125.503L87.3069 124.035L87.4865 124.192L87.3781 124.986L87.9518 124.315L88.1386 124.598L88.9291 124.539C89.0967 123.982 90.0512 123.454 89.4249 122.79L89.1117 123.155L88.8171 123.006L89.0297 122.036L88.8806 122.208L88.2428 121.966C89.0596 121.243 87.7506 120.97 88.1045 120.106C86.9194 120.482 87.9111 119.166 87.5608 119.024L87.3033 119.387C86.5799 118.596 86.6176 118.018 85.7637 117.622C85.7224 117.123 84.5817 117 85.208 116.41L84.5781 116.298L84.7757 115.034C84.1751 115.371 84.1751 116.534 83.4481 116.213C83.3026 115.307 84.7978 114.745 84.5254 113.973L83.3774 115.3C81.3415 115.244 84.3242 113.443 83.6571 112.332C82.4786 112.213 82.505 111.131 82.0355 110.408L81.6924 109.946L81.0211 110.486L79.3881 111.858L80.1636 110.554L80.6409 109.729L79.7307 110.583L79.2055 111.079L79.1342 110.624C79.2911 109.957 80.4247 109.338 80.2864 108.838L78.6534 110.329L78.5157 110.218L79.7462 108.257C78.836 108.32 78.8696 109.86 77.9713 109.633C77.8965 108.596 79.0899 108.346 79.5636 107.477C78.9893 105.278 78.1019 108.499 77.2408 108.104C77.3971 107.384 78.2396 106.996 78.6869 106.299C79.3881 104.581 76.9378 104.059 77.457 102.649L76.5653 102.877L76.8114 102.359L76.3569 102.269L76.4354 102.056L76.4725 102.008L76.9043 101.266L75.8461 101.683L76.4126 100.852L75.4767 101.083L76.0102 99.9274C75.7192 99.9047 75.5743 100.617 75.2833 100.151C75.4659 99.7975 76.1072 99.5436 75.8204 99.0256C75.4958 99.1262 75.3168 99.5586 75.0371 99.0885C75.4138 97.9328 74.7353 97.2322 74.2204 96.4789L74.4443 95.5501L73.3329 95.1333C73.5904 94.1189 75.533 95.0585 75.9168 94.0261L75.5743 93.895L76.1665 93.3207L76.4617 93.0339L76.2899 93.0303L76.1072 93.0411C75.4252 93.1045 74.6719 93.4069 74.2353 92.7393L74.3916 92.5644L74.4743 92.5788L74.5599 92.5716L74.7353 92.5452L74.8174 92.5423L75.0222 92.6914C75.0336 92.1878 76.3569 92.1728 75.7342 91.55C76.2863 91.1811 77.3635 91.1811 77.5198 90.4578C76.9911 90.5841 76.5282 91.1177 75.9581 90.741C76.1929 89.9392 77.2965 90.271 77.7588 89.7009L76.3755 89.6338L76.4725 89.2907L76.1929 89.3092C76.0659 88.7386 77.3779 88.523 77.9713 88.1008C76.1108 87.7841 78.6312 87.5122 78.5007 86.8152L77.2707 87.0685L78.445 86.0283H78.3588L78.0941 86.0882L78.0085 86.0918L77.8073 85.9499L78.3815 85.2864L77.8965 84.8241L78.1654 84.5073C77.5198 83.6834 77.7624 82.5462 77.7737 81.4276L77.1396 81.3043L77.5911 80.6444L76.4725 80.73L77.1432 80.1228C76.1887 80.5851 75.615 79.6941 75 79.4258L75.4252 78.9372L75.227 78.497L74.485 79.1755L74.1461 78.5755C73.2437 78.6797 72.1664 77.5611 71.685 76.7227L71.9497 76.4132L72.6101 76.8192C72.2856 76.7 71.9688 75.9916 71.458 76.0251L71.1413 76.1335C70.44 76.7263 70.6748 77.6659 70.6939 78.497C71.2526 80.4474 73.3814 81.163 74.6868 81.942C74.9144 82.6762 74.4814 83.1205 75.1521 83.6534L74.5862 83.6977H74.5264L75.018 84.1193C74.288 84.1714 74.6791 85.0666 74.2431 85.0553L74.0006 84.984C74.612 85.4391 73.3706 85.4541 74.0677 85.8906L73.4677 86.2709L73.7766 86.5355C72.7628 86.8188 73.9257 87.4038 72.9419 87.5571L73.6054 88.135L73.4227 88.3104L73.3407 88.3134L73.0724 88.2877L72.9904 88.3026L73.1988 88.7799C72.2449 89.3949 70.9323 89.6152 70.3472 90.6961L70.7083 91.1284L68.5089 92.8734L69.8472 92.277L68.5047 93.8728L68.5346 93.8692L69.7095 93.1716L70.0748 93.2129L69.4891 93.7986L68.0615 95.2339C68.6502 94.7788 69.3065 94.0141 69.9778 94.1339L68.8256 95.4687L70.2011 94.9094C70.1197 95.5393 69.4598 95.5471 69.2059 96.0651L70.276 95.983L69.5676 96.9897C69.7017 97.1459 70.2682 96.9376 70.1047 97.5789L70.3951 97.5567C70.9586 97.8921 70.0598 98.1154 70.1718 98.4807L71.07 98.2909L70.8424 99.0622L71.4724 99.1747L70.7646 100.312L71.2269 100.446L71.0999 100.912L71.8946 101.02L71.346 102.016L71.573 102.414L71.1712 103.563C71.6592 103.488 71.864 102.31 72.4868 102.847C72.0203 103.253 72.0173 103.787 71.5023 104.163C71.9497 103.962 72.3113 103.194 72.8748 103.6C72.1215 104.577 71.2419 106.18 70.1269 106.303L70.2161 105.829C68.8071 105.938 70.8838 104.708 70.246 104.089L69.3771 104.659C68.8143 104.323 69.6682 104.051 69.5975 103.682L69.3065 103.701L69.0867 102.929L68.6244 102.63C68.0909 101.989 68.561 100.871 68.1136 100.383C67.6178 99.3346 66.8388 98.3544 66.9657 97.3513L66.328 97.0645L66.4172 96.598C65.2986 97.2172 64.2136 98.2567 64.0159 99.5664L64.8699 98.7454C65.3992 99.1262 64.6315 99.4316 64.6609 99.846L65.5262 99.1633L65.3022 100.084L65.9136 99.9203L65.4962 101.035C67.3975 100.237 65.116 102.101 65.9513 102.701L66.2417 102.679L66.2082 102.814C66.0591 103.519 66.8274 103.764 66.2531 104.55L66.8831 104.674C66.4172 105.617 67.6849 105.863 67.0549 106.986L67.8041 106.929L67.4166 107.91L68.0053 107.377L67.64 108.652L68.4975 107.959L68.546 108.582L69.0532 108.708L68.5089 109.819L69.2472 109.651C68.6652 110.274 69.2394 110.729 69.0867 111.359C69.8658 111.806 69.3921 112.347 69.1502 112.98L69.9328 112.22C70.2275 112.783 69.6532 113.298 69.5262 113.891L70.2909 113.149C70.4215 113.677 69.8065 114.342 69.8137 115.054L70.7347 114.528L70.4023 116.392C71.0664 115.845 70.4101 115.34 71.2191 114.953C71.6257 115.96 70.4287 116.787 70.779 117.63C71.1221 117.152 70.9472 116.377 71.6257 116.463L71.152 118.536C71.5323 118.088 71.7113 117.118 72.3006 117.204L71.685 119.113L72.3898 118.439C72.6509 119.17 71.8311 119.897 71.8011 120.691L72.6395 119.669C72.9419 120.311 72.2485 120.982 72.3419 121.727L73.0461 120.597C73.3778 121.194 72.6359 121.787 72.6922 122.484L73.4491 122.104L73.2515 123.364L73.9299 122.399C74.0784 123.305 73.5012 123.67 73.5012 124.71L74.1761 123.465C74.5413 124.524 73.8102 125.06 74.0527 126.082L74.709 124.508C75.1192 125.634 74.4258 126.056 74.6012 127.287L75.5479 125.228C75.5779 126.205 75.3132 126.671 75.1342 127.748L75.1306 127.931L75.2084 127.786L76.2342 125.971C76.2863 126.708 76.0701 127.551 75.8982 128.405L75.8012 128.904L76.1743 128.386L76.4126 128.368C76.4989 128.852 76.7408 128.353 76.9947 128.368L77.2102 128.521C77.0989 129.269 76.9791 129.99 76.909 130.739L77.4719 129.908L77.6091 130.068C77.5276 130.69 77.4156 131.328 77.2965 131.962L77.9713 130.5C78.2246 131.145 77.733 132.342 77.9713 132.7L78.5342 131.872C78.9815 132.293 78.4738 132.749 78.639 133.278L79.045 132.622C79.4995 133.165 79.0073 133.785 79.1791 134.482L79.7307 133.483L79.8241 134.728L80.257 133.904C81.0469 134.34 80.175 134.985 80.5175 135.631L80.8127 135.112C81.9199 134.989 81.5732 136.465 81.763 137.249C81.972 136.771 81.7073 136.037 82.2774 135.794L82.5307 137.801L82.9708 136.82L83.3068 139.627C83.6834 139.143 83.0792 138.303 83.6721 137.886L84.0894 139.564L84.4703 138.583C84.9811 139.25 84.3655 139.873 84.6188 140.612L85.32 139.307L85.2529 140.727L85.5547 140.555C85.95 140.544 85.726 141.939 86.4272 141.436C85.8194 143.3 87.9704 143.233 88.5859 144.269L88.7464 144.135L89.5333 144.697L89.9956 144.165C90.2453 144.772 90.5285 144.709 90.9345 144.589L91.6207 144.639L92.001 144.612C93.5262 144.407 95.1705 143.65 96.1358 142.252C97.5568 141.819 96.5717 140.313 97.6274 139.362L97.7059 139.348C97.9849 139.351 98.1826 139.896 98.4179 139.422L97.9065 138.717C98.4251 138.426 97.9514 138.125 98.0113 137.752L98.7424 137.532L98.5778 137.085L99.652 137.01L99.2898 136.577C99.8233 136.067 100.163 135.828 100.695 135.824L100.983 135.835L100.625 135.514L101.505 134.717L101.993 134.959L101.937 134.176L102.765 133.502L103.153 133.636C102.426 132.893 103.533 132.734 103.656 132.055L104.334 132.323L104.461 132.282C104.122 131.648 104.249 131.187 104.167 130.605L105.237 130.362L104.424 129.963L105.174 129.579L104.983 129.132L106.217 129.039L105.538 128.296L105.748 128.155L105.859 128.151L105.815 127.532L105.941 127.492L106.952 127.771L107.227 127.551L106.05 126.727L107.161 126.645L106.594 126.15L105.979 125.773L107.089 125.691L106.396 124.657L107.773 124.732ZM63.7884 98.649L66.2232 95.6591C65.3172 95.189 65.9292 93.8129 64.6723 93.7758C64.5603 92.9147 65.1232 92.0009 65.4292 91.6877L64.2393 92.3997C62.6704 93.1758 61.3093 94.8052 60.9584 96.207L62.4015 94.5698C62.5021 95.398 61.3428 95.9274 61.5105 96.9525L61.9315 96.5867L61.9842 97.2058L62.6141 97.325L62.4914 97.9591L63.0878 97.5825L63.289 98.0705L63.9082 98.0262L63.7884 98.649ZM62.3758 88.0044L62.0105 87.5721C60.5823 87.8889 59.635 89.1679 58.2889 89.5482C57.0739 89.9356 56.5775 91.7141 55.0936 90.741C55.3211 91.5165 56.3876 91.938 56.7679 92.6165L56.8721 91.6919C58.6392 90.3159 60.8243 89.529 62.3758 88.0044ZM56.9763 95.4238L56.5068 95.2968C56.8164 95.4351 56.4433 96.1771 57.0062 95.8824L56.9763 95.4238ZM53.7403 91.5913C54.7205 92.4746 55.1571 93.8992 56.1864 94.8531C56.1343 94.1561 55.3104 93.6752 55.5559 93.0339L56.7757 94.3615L56.3577 93.2686C55.8655 92.1878 54.5756 90.9907 53.2522 91.1698C52.9427 91.4865 52.3648 92.1057 52.9013 92.6087C54.9972 92.8255 54.8924 95.4124 56.302 96.389C55.7236 94.686 54.2888 93.3363 53.7403 91.5913ZM56.1493 88.1649L56.4397 88.1499C56.9733 87.4865 58.8338 87.393 58.0356 86.1589C58.6356 86.2816 58.5464 85.0846 59.1057 85.9164L59.2099 85.1187C61.1303 85.6816 62.353 87.1691 64.3818 87.5607C65.1759 87.5906 65.116 86.8038 65.2016 86.2559C64.6908 84.384 63.7064 86.9044 62.8495 85.9313C62.9237 85.305 63.0471 84.6708 63.1656 84.0415L62.7111 84.0744L62.6662 83.4558L61.7231 83.6834L61.9949 82.878L60.6273 83.4744L60.8919 82.5013C60.3997 82.5798 59.9817 83.1498 59.4973 82.7738L59.635 82.4229L58.8631 82.6468L58.9715 81.8492L58.0655 82.542C57.1296 83.4001 57.014 84.7008 57.2152 85.7223L56.5631 85.3086L56.6751 86.8823C56.0966 86.9272 56.5966 87.9667 56.1493 88.1649ZM61.5662 81.5354C63.6393 82.0875 64.907 83.9924 65.3321 85.7487C65.4848 86.7068 65.9884 86.8894 66.5513 86.8745L66.719 86.8601L67.5394 86.7481L67.6921 86.7331L68.0615 86.7924C68.6023 86.7517 68.3526 86.1475 68.6208 85.8343C68.2107 85.4134 68.2256 84.4511 67.3975 84.5109L67.6364 85.4541L67.1406 85.3313L66.943 85.3457L65.9585 85.8679L65.7831 85.7152C65.6567 84.6415 66.8567 83.9738 67.6585 83.5792L67.204 83.1355L66.6633 83.0271L66.9573 82.5085L65.8765 82.4606L66.3088 82.0989L65.2166 82.0127L65.2088 81.8935L65.6417 81.5282H65.5112L64.6758 81.4276L65.2579 80.9354L64.0273 81.0252L64.3333 80.7121L63.2447 80.618L63.4309 80.436H63.5165L62.2638 80.3612L62.5734 80.0701L62.7033 80.0444L62.6141 80.0522L62.5734 80.0701L61.477 80.2941L61.9135 79.4779C61.3656 79.4815 60.9734 79.9695 60.5189 79.9737L60.1979 79.8875L60.3434 79.5929L59.7578 80.0929C59.0643 81.5133 60.9584 81.1288 61.5662 81.5354ZM62.4914 78.8066C64.7764 79.4701 67.5394 80.842 68.4382 83.3588C68.8406 82.6618 70.0634 82.3223 70.6897 82.4043L70.179 81.6474L68.9448 81.9049C69.1238 81.3899 69.7131 81.5995 69.9778 81.2079L68.7286 81.133L69.3101 80.6336L68.3556 80.5324L68.8071 80.0522L67.5579 79.9737L68.2735 79.4629L67.0208 79.3923L67.7669 78.8815L66.2268 78.8252L66.8274 78.4857L65.4142 78.43L66.0142 78.0946L64.5902 78.027L65.1794 77.5317C64.18 78.1467 62.2039 77.1701 62.4914 78.8066ZM65.5525 76.3832C65.8501 77.0617 66.7974 77.494 67.513 77.6509C68.5202 77.785 69.0418 79.239 70.1155 79.0342C70.2203 78.2809 69.0232 77.8707 69.855 77.1844L69.0532 77.0767L69.7951 76.3982L68.0574 76.5287L68.6316 75.8646C67.946 75.5371 67.6957 76.6365 67.1178 76.1407L67.6921 75.4736C66.8609 75.5329 66.2717 76.0772 65.5525 76.3832ZM71.1299 88.4553L71.0143 88.4703L70.7197 88.4817L70.567 88.4925L70.2011 88.6751L71.1299 88.4553ZM68.9861 90.8003L68.5125 91.2853L69.2694 90.7781L68.9861 90.8003ZM70.861 89.2494C69.5005 89.4284 68.2663 90.1075 67.4202 91.0764L70.861 89.2494ZM70.3095 83.3852L70.1861 84.0187L69.6981 83.5564L69.5676 84.0672L69.0831 83.7654C69.2915 84.2948 68.6616 84.1714 68.5125 84.4325C68.7771 85.2044 69.3514 86.2002 70.4772 85.7002C71.3646 85.305 71.4916 84.2127 71.0592 83.4594L70.3095 83.3852ZM76.4426 78.0719C78.1989 79.3581 79.2911 76.6964 80.6858 76.3868C81.7744 75.3131 83.9361 74.9029 84.9883 73.4077C89.6446 70.5777 94.5998 67.7926 99.1263 64.4339L99.1071 64.0979L98.1604 63.7141L76.4168 77.7773L76.4426 78.0719ZM93.6603 58.7331L94.0256 59.1661L94.1968 58.9349L93.828 58.5092L93.716 58.5954L93.6603 58.7331ZM78.3737 102.593L78.5456 102.583L78.6869 102.09L78.3737 102.593ZM79.045 102.888L78.6049 103.392L78.9109 103.372L79.045 102.888ZM79.3696 104.939L79.6678 104.916L79.7941 104.26L79.3696 104.939ZM83.3774 110.471L83.7242 110.445L83.9775 109.774C83.4445 109.595 83.3511 110.083 83.3774 110.471ZM84.5781 111.508L84.8913 111.005L84.5409 111.031L84.5781 111.508ZM85.3458 112.746L85.7116 112.724L85.95 111.653L85.3458 112.746ZM86.4679 112.406L85.7224 113.674L86.0434 113.648C86.3937 113.29 86.9452 112.652 86.4679 112.406ZM87.1356 112.977L86.7518 114.084L86.8039 114.066L87.3332 113.592L87.1356 112.977ZM86.9973 115.147L87.4452 115.14C87.6985 114.67 87.9704 114.249 87.9704 113.704C87.4488 113.871 87.1656 114.633 86.9973 115.147ZM88.3734 114.587L87.3745 116.243L87.9931 115.863L88.3734 114.587ZM89.0147 114.878L87.9374 117.112L88.5147 116.649L89.0147 114.878ZM89.1566 116.735L89.447 116.713L89.5363 115.755L89.1566 116.735ZM101.952 64.3476C103.816 68.3968 106.523 71.5178 108.555 75.2832L109.022 75.0592L101.952 64.3476ZM108.249 75.2425L103.589 68.4639L103.183 68.6729L107.817 75.6185L108 75.4323L108.249 75.2425ZM107.071 75.082L105.143 72.1143L104.759 72.2185L104.726 72.3191L106.665 75.2946L107.071 75.082ZM111.552 55.2474L111.918 55.9666L112.015 55.7654L112.037 55.6612L111.552 55.2474ZM136.368 107.843C137.159 109.495 133.897 109.722 135.705 111.128C134.847 111.858 133.777 112.164 132.663 112.373C131.432 113.794 130.112 115.061 128.01 114.755C126.925 116.504 125.295 118.125 123.036 117.458L121.929 117.082C121.574 117.794 121.194 118.506 120.806 119.203C115.907 127.917 108.025 135.5 100.103 141.014C97.1352 144.239 94.0555 146.379 89.9956 145.891C86.1889 145.618 76.1971 135.824 71.3946 122.839L71.3796 122.802C68.7885 115.863 66.3944 108.794 64.1986 101.624C63.5908 100.801 62.8938 99.9831 62.1518 99.1891C61.0368 98.0041 59.9189 96.9525 58.7476 96.0124C57.3194 96.4489 56.0481 98.3352 54.3595 97.0531C53.1624 96.0166 52.242 94.8345 52.0438 93.3099C51.3995 90.7745 54.0576 89.9955 55.4589 88.6793C55.2691 85.3798 56.5403 83.2432 57.1296 82.4528C58.2625 81.0737 58.4051 80.7043 58.923 79.9174C59.329 79.3096 60.2656 78.512 61.5069 78.3665C63.4417 75.9844 63.5836 77.9042 65.5148 75.5443C66.0962 74.8359 68.4975 74.1574 69.0867 74.9742C70.3472 76.8377 72.1922 73.6874 73.8665 76.5994C80.3391 72.8298 86.4158 68.7884 92.6423 64.5416C91.3968 61.7566 89.9991 58.8601 89.8536 55.7097L101.974 47.5928C104.987 48.3311 107.258 51.4479 109.421 53.6252C111.019 51.6348 112.813 53.9199 113.782 55.1798C114.531 56.3325 115.124 57.5852 115.49 59.0128L114.036 60.2427C115.356 63.4793 116.709 66.8872 117.443 70.5819C113.849 73.8442 109.271 75.7604 105.494 78.8324C101.751 78.3515 99.1221 74.4814 97.0047 71.8047L95.7627 71.8945L79.172 82.781C78.3588 84.1271 79.8241 84.984 79.4402 86.6212C78.9408 89.4063 78.4037 92.1243 76.6587 94.4692C77.1324 95.6627 77.5791 96.8148 78.1498 97.9777C81.778 105.296 85.0553 109.54 91.6914 115.263C93.1717 116.996 93.2387 117.943 94.3801 118.73C96.337 114.789 95.3005 109.357 97.5789 105.901C99.3874 102.351 101.61 101.923 100.274 99.64C99.264 98.9993 98.9922 97.5897 99.1964 96.4567L99.3496 95.8603C100.707 92.262 105.621 90.9051 105.937 86.6733C106.792 86.9008 106.959 85.8529 107.757 85.9164C106.963 86.5128 106.363 87.393 106.05 88.2469L106.516 88.3398C106.18 88.8619 106.05 89.3949 106.404 89.7117C108.358 90.1931 110.068 89.5739 112.082 89.8015C115.278 89.656 117.358 92.8734 120.441 92.9369C121.1 92.847 121.523 92.3632 122.249 92.0536C122.831 92.0536 123.294 92.6423 123.573 93.0411C123.759 93.28 122.033 92.0758 122.621 93.2393L122.138 93.1309C122.275 93.6495 122.387 94.2082 122.51 94.7489C122.637 95.3082 122.805 95.7597 123.308 96.2549C124.296 96.1393 124.236 97.7543 125.127 97.3549C125.299 98.6298 127.719 97.8178 127.047 99.4951L125.4 99.9981L124.856 99.1933C125.269 100.829 126.492 102.228 127.394 103.66C127.566 102.735 126.514 101.825 126.354 100.829L127.711 102.261L127.454 100.964C128.587 102.858 129.624 100.93 130.537 102.694C130.776 103.22 129.986 103.194 129.922 103.559L129.431 103.134L129.292 103.768L128.599 102.735C127.752 103.444 127.954 105.01 128.285 106.109L128.363 106.013L128.613 104.913C128.972 105.811 128.886 106.389 129.385 106.937L129.605 105.475C129.844 105.956 129.922 106.62 130.202 107.056L130.679 106.486L130.642 105.677L131.231 105.744L131.19 105.002L131.727 104.961C132.058 104.443 131.503 104.059 131.428 103.611L132.126 103.392C130.966 102.355 132.856 101.908 131.98 100.759C133.282 100.334 132.667 98.41 132.499 97.2172C132.338 96.7699 131.995 95.789 131.995 95.2411C133.576 98.8723 134.02 103.563 133.573 106.937L134.284 105.282C134.668 106.229 133.848 106.907 134.568 107.187L135.109 106.023L135.38 107.045C135.858 106.177 136.01 105.222 136.01 104.178C136.991 105.583 135.459 107.336 136.052 108.193L136.368 107.843ZM85.6811 122.118L85.141 123.439L84.9841 123.576L85.6811 122.118ZM84.7643 120.579C84.4068 120.989 84.3356 121.754 83.7427 121.754C82.9972 121.429 83.5194 120.452 84.0781 119.993L83.8134 120.986L84.7643 120.579Z" fill="#004280"/>
<path fill-rule="evenodd" clip-rule="evenodd" d="M169.211 170.48H170.293C171.072 170.48 171.437 170.711 171.437 171.225C171.437 171.993 170.903 172.049 170.151 172.049H169.211V170.48ZM172.556 171.27C172.556 170.107 171.854 169.543 170.42 169.543H168.141V175.479H169.211V172.992H170.106L171.534 175.434L172.6 175.479H172.791L171.113 172.891C172.022 172.724 172.556 172.18 172.556 171.27Z" fill="#004280"/>
<path fill-rule="evenodd" clip-rule="evenodd" d="M170.162 176.545C167.914 176.545 166.214 174.807 166.214 172.496C166.214 170.203 167.914 168.477 170.162 168.477C172.362 168.477 174.08 170.24 174.08 172.496C174.08 174.807 172.399 176.545 170.162 176.545ZM170.162 167.429C167.277 167.429 165.013 169.655 165.013 172.496C165.013 175.344 167.277 177.578 170.162 177.578C173.037 177.578 175.289 175.344 175.289 172.496C175.289 169.655 173.037 167.429 170.162 167.429Z" fill="#004280"/>
<path fill-rule="evenodd" clip-rule="evenodd" d="M126.228 127.506H127.316C128.099 127.506 128.46 127.744 128.46 128.252C128.46 129.019 127.928 129.076 127.174 129.076H126.228V127.506ZM129.572 128.296C129.572 127.133 128.878 126.571 127.443 126.571H125.162V132.506H126.228V130.018H127.13V130.027L128.558 132.454L129.62 132.506H129.81L128.137 129.918C129.038 129.75 129.572 129.202 129.572 128.296Z" fill="#004280"/>
<path fill-rule="evenodd" clip-rule="evenodd" d="M127.186 133.58C124.933 133.58 123.237 131.834 123.237 129.523C123.237 127.229 124.933 125.497 127.186 125.497C129.382 125.497 131.104 127.267 131.104 129.523C131.104 131.834 129.419 133.58 127.186 133.58ZM127.186 124.46C124.296 124.46 122.033 126.682 122.033 129.523C122.033 132.375 124.296 134.605 127.186 134.605C130.056 134.605 132.308 132.375 132.308 129.523C132.308 126.682 130.056 124.46 127.186 124.46Z" fill="#004280"/>
<path d="M28.6707 82.2438L37.1679 83.963C36.4966 86.7631 36.1421 89.7829 36.1421 89.7829L13.5781 86.114C13.5781 86.114 14.1081 81.6366 15.5285 76.0287C17.0902 69.907 20.6663 68.3932 24.5287 69.5376C27.4515 70.4065 28.7264 72.6323 28.9204 75.3389C30.2737 75.2239 32.4737 75.2239 34.9828 74.7389C38.7074 74.0233 40.6835 73.1544 40.6835 73.1544C40.6835 73.1544 39.114 76.909 38.402 79.3432C37.3804 80.2085 34.5576 80.4025 28.9767 81.0396L28.6707 82.2438ZM25.088 81.3977C25.088 81.3977 25.3005 80.5474 25.6359 79.0186C25.9676 77.4683 24.5658 75.9952 22.8059 75.5665C20.8298 75.0742 19.3124 75.8982 18.9249 77.2707C18.5333 78.6539 18.3058 80.0258 18.3058 80.0258L25.088 81.3977Z" fill="white"/>
<path d="M166.758 99.584L158.276 99.7259C158.429 96.8774 158.224 93.8839 158.224 93.8839L180.616 92.6533C180.616 92.6533 180.862 97.0863 180.441 102.771C179.986 108.95 176.82 111.146 172.94 110.874C169.994 110.669 168.394 108.812 167.739 106.269C166.456 106.664 164.342 107.127 162.019 108.118C158.585 109.591 156.833 110.836 156.833 110.836C156.833 110.836 157.673 106.922 157.918 104.427C158.749 103.391 161.437 102.608 166.687 100.803L166.758 99.584ZM170.36 99.6289C170.36 99.6289 170.293 100.501 170.248 102.049C170.192 103.6 171.798 104.718 173.547 104.752C175.527 104.808 176.843 103.697 176.985 102.295C177.123 100.885 177.108 99.5175 177.108 99.5175L170.36 99.6289Z" fill="white"/>
<path d="M41.2692 71.8494L20.6064 61.6151C20.6064 61.6151 22.9813 56.373 25.1736 52.9879L40.0721 57.7527L30.1402 45.665C30.1402 45.665 32.7983 42.0524 35.7804 38.9541L53.3491 54.2257C51.3359 56.2724 49.7358 58.2892 49.7358 58.2892L37.2314 48.6705L37.1565 48.801L47.2603 60.724C45.7208 62.778 44.6315 64.7391 44.6315 64.7391L29.7036 60.1605L29.6474 60.2767L43.2261 67.9457C42.3722 69.4404 41.2692 71.8494 41.2692 71.8494Z" fill="white"/>
<path d="M123.334 41.3888L133.777 20.4692C133.777 20.4692 139.183 23.0974 142.241 25.2226L137.378 40.2445L149.388 30.379C149.388 30.379 152.888 33.1605 155.882 36.1989L140.645 53.7262C138.654 51.6825 136.693 50.0531 136.693 50.0531L146.352 37.5037L146.222 37.4439L134.373 47.4584C132.364 45.8889 130.433 44.7626 130.433 44.7626L135.108 29.7341L134.989 29.6742L127.234 43.4099C125.75 42.5296 123.334 41.3888 123.334 41.3888Z" fill="white"/>
<path d="M142.912 56.2275L160.368 41.1392C160.368 41.1392 164.271 45.665 166.244 48.8118L156.121 60.6827L170.763 56.3395C170.763 56.3395 172.884 60.2504 174.446 64.1983L153.978 74.3321C152.945 71.674 151.774 69.4182 151.774 69.4182L165.315 61.6779L165.222 61.566L150.652 66.1265C149.421 63.8965 148.091 62.0995 148.091 62.0995L158.056 50.1507L157.975 50.0459L145.694 59.6132C144.676 58.2186 142.912 56.2275 142.912 56.2275Z" fill="white"/>
<path d="M64.6685 41.1508C64.3553 41.758 63.4379 42.4813 62.8523 42.761C61.048 43.6221 58.6204 42.8167 57.7743 41.3178C57.1366 40.1885 56.7785 38.3543 57.4312 37.2579L64.4745 39.8831C65.0188 40.0807 65.0972 40.2855 64.6685 41.1508ZM54.1874 30.096C53.5425 29.0038 54.0575 27.9146 54.9257 27.4187C55.4892 27.102 56.3725 26.9601 56.9731 27.4265C58.3785 28.7912 57.7444 30.0661 56.9432 31.3224C55.7276 31.1733 54.773 31.0805 54.1874 30.096ZM70.6937 36.5195C71.0734 34.4093 70.9991 30.1553 68.9003 26.4834L64.9781 28.7499C66.9128 31.8446 66.7973 34.4506 66.5811 35.1997L60.239 32.8769C61.9313 29.5176 62.9271 27.8439 61.3798 25.2265C59.4971 22.0462 55.9138 21.9641 52.4239 24.2049C49.6837 25.9648 47.5549 30.3344 50.1161 33.7943C50.7424 34.644 52.0993 35.2447 53.6287 35.5842C52.1257 38.1118 51.0712 41.7801 52.7892 44.655C55.0527 48.4246 59.9929 48.5324 63.2445 46.6946C65.5667 45.382 67.9045 43.167 68.4266 41.3813L70.0746 42.0077C70.0746 42.0077 74.0675 40.0094 77.1286 39.0142L70.6937 36.5195Z" fill="white"/>
<path d="M17.3847 103.629L26.6981 100.714C26.7502 102.359 26.9148 104.305 27.0975 105.811L17.4038 103.798L17.3847 103.629ZM36.4073 107.742L31.1874 106.661C30.8928 104.439 30.6395 101.587 30.6431 99.4801L35.6204 97.9292C35.6204 97.9292 35.5791 94.2602 35.9743 91.1284L12.8882 98.5627C12.8882 98.5627 12.8882 102.888 13.5409 107.872L37.4582 112.756C37.4582 112.756 36.8061 110.345 36.4073 107.742Z" fill="white"/>
<path d="M111.788 27.7836L116.75 18.9217L116.929 18.9552L116.75 29.0369C115.165 28.559 113.26 28.0818 111.788 27.7836ZM114.114 13.7354L101.826 35.7957C101.826 35.7957 104.39 35.8778 107.004 36.3364L109.689 31.5274C111.873 31.9483 114.651 32.6268 116.675 33.3058L116.582 38.7191C116.582 38.7191 120.105 39.8485 122.931 41.236L123.158 16.1294C123.158 16.1294 119.073 14.742 114.114 13.7354Z" fill="white"/>
<path d="M101.084 12.1247C101.084 12.1247 97.8994 11.9385 93.9472 12.1061L94.5963 21.3938C92.9813 21.4608 89.9393 21.6399 86.9309 22.0908L85.95 12.9043C85.95 12.9043 82.7548 13.2433 78.896 14.1229L82.7548 37.3432C82.7548 37.3432 85.6554 36.6204 88.4519 36.2396L87.4339 26.7549C88.8579 26.5645 91.7214 26.1771 94.9245 26.1214L95.5766 35.5983C95.5766 35.5983 98.8617 35.5018 101.389 35.7102L101.084 12.1247Z" fill="white"/>
<path d="M176.668 70.272L155.145 77.3967C157.344 84.395 158.041 91.2215 158.041 91.2215L161.767 90.7892C161.442 87.6723 160.294 81.8746 160.294 81.8746L165.599 80.4578C166.427 84.3837 166.96 88.4143 166.96 88.4143L170.923 88.0155C170.543 84.5477 169.83 81.0656 169.465 79.4291L174.562 78.0572C174.562 78.0572 175.912 83.2022 176.434 88.7646L180.326 88.4442C179.458 78.4183 176.668 70.272 176.668 70.272Z" fill="white"/>
<path d="M41.0527 138.02L42.6156 136.973L38.8981 131.384L37.3244 132.435L38.555 134.269L31.9561 138.665L33.2309 140.571L39.8263 136.179L41.0527 138.02Z" fill="white"/>
<path d="M45.5604 140.555L42.6262 142.979L41.3663 141.461L44.3005 139.034L42.8388 137.267L35.2739 143.519L36.735 145.283L40.0052 142.584L41.2651 144.109L37.9919 146.808L39.4573 148.572L47.0185 142.319L45.5604 140.555Z" fill="white"/>
<path d="M48.1813 145.973L50.4628 148.218L51.7006 146.957L47.7861 143.105L40.9033 150.1L44.8926 154.026L46.1346 152.766L43.7746 150.451L45.5118 148.686L47.6107 150.756L48.8448 149.496L46.7531 147.427L48.1813 145.973Z" fill="white"/>
<path d="M54.7617 152.579L55.321 152.199L55.9809 152.412C56.4174 152.732 56.3725 153.169 55.8282 153.9L55.742 154.022L57.5318 155.35L57.6216 155.242C58.2737 154.473 58.5534 153.766 58.475 153.079C58.3971 152.367 57.9384 151.715 57.0809 151.076C55.3324 149.779 53.8707 149.88 52.7599 151.386C51.7568 152.736 52.3832 154.176 52.8862 155.335C53.2671 156.215 53.5988 156.975 53.2036 157.508L52.588 157.938L51.9658 157.743L51.5335 157.146C51.4808 156.792 51.7383 156.405 52.0886 155.939L52.182 155.816L50.34 154.458L50.2544 154.567C49.5275 155.424 49.2143 156.196 49.2999 156.93C49.3813 157.646 49.852 158.321 50.6981 158.951C51.8946 159.834 53.6659 160.778 55.2132 158.686C56.2719 157.266 55.6156 155.864 55.0934 154.734C54.691 153.881 54.3443 153.143 54.7617 152.579Z" fill="white"/>
<path d="M64.2919 158.138L65.2578 156.524L59.493 153.072L58.5277 154.69L60.4217 155.827L56.3462 162.62L58.3079 163.802L62.39 157.005L64.2919 158.138Z" fill="white"/>
<path d="M66.7116 160.092C66.5289 160.92 66.0403 163.145 65.9732 163.433L64.6049 162.773C64.7876 162.55 66.193 160.756 66.7116 160.092ZM66.6595 157.181L59.9707 164.853L62.0252 165.834L63.4235 164.171L65.6523 165.237L65.2205 167.362L67.3972 168.41L69.2356 158.407L66.6595 157.181Z" fill="white"/>
<path d="M76.7144 161.274C76.7144 161.274 75.1676 165.826 74.7838 166.941C74.7389 165.751 74.5413 160.532 74.5413 160.532L71.7562 159.588L68.5908 168.872L70.6376 169.569C70.6376 169.569 72.2855 164.73 72.6771 163.57C72.7185 164.805 72.8747 170.33 72.8747 170.33L75.5922 171.259L78.7575 161.971L76.7144 161.274Z" fill="white"/>
<path d="M82.3928 164.581C83.0342 164.719 83.2581 165.148 83.2581 165.838C83.2581 166.378 83.1126 167.071 82.9413 167.907C82.6317 169.346 82.3485 170.297 81.8485 170.613L81.0173 170.711L80.2233 170.539L81.5353 164.398L82.3928 164.581ZM83.0569 162.922L79.664 162.195L77.6089 171.788L80.9275 172.5C81.9006 172.706 82.7174 172.593 83.3701 172.164C84.5929 171.367 84.9546 169.629 85.1671 168.592L85.2192 168.343C85.8642 165.334 85.7115 163.485 83.0569 162.922Z" fill="white"/>
<path d="M90.517 170.032L89.0145 169.883C89.1043 169.603 89.8121 167.444 90.0696 166.643C90.1816 167.478 90.4834 169.741 90.517 170.032ZM89.0295 163.918L85.3647 173.421L87.639 173.637L88.3732 171.594L90.8451 171.84L91.1619 173.988L93.5553 174.223L91.8667 164.197L89.0295 163.918Z" fill="white"/>
<path d="M98.5478 167.232V167.262C98.5478 167.586 98.4771 168.477 97.7058 168.485L96.9711 168.5L96.9375 166.158L97.6645 166.144L98.2717 166.337L98.5478 167.232ZM100.889 171.188C100.871 169.864 100.114 169.443 99.5322 169.294C100.386 168.943 100.86 168.191 100.86 167.042V166.967C100.848 166.113 100.591 165.416 100.129 164.965C99.7113 164.559 99.1262 164.353 98.4472 164.365L94.6147 164.425L94.7788 174.237L97.0639 174.204L97.0046 170.263L97.3621 170.255C97.8358 170.248 98.1603 170.341 98.3537 170.528C98.6561 170.822 98.6597 171.352 98.6639 171.97L98.6705 172.44C98.6705 172.988 98.6747 173.559 98.9244 174.08L98.9586 174.175L101.251 174.133L101.142 173.917C100.998 173.607 100.905 172.139 100.889 171.188Z" fill="white"/>
<path d="M104.942 172.034L104.215 165.796L105.084 165.692L105.852 165.875C106.396 166.307 106.53 167.455 106.672 168.675C106.747 169.305 106.795 169.849 106.795 170.301C106.795 170.889 106.709 171.314 106.504 171.586L105.744 171.94L104.942 172.034ZM108.972 168.346C108.782 166.759 108.477 165.177 107.496 164.406C106.933 163.951 106.173 163.791 105.184 163.906L101.736 164.308L102.869 174.051L106.243 173.659C107.224 173.548 107.966 173.182 108.443 172.559C109.345 171.411 109.132 169.655 108.995 168.607L108.972 168.346Z" fill="white"/>
<path d="M117.428 169.871L116.761 169.831C116.261 169.547 115.922 168.604 115.467 166.956C115.009 165.304 114.814 164.32 115.095 163.824L115.642 163.44L116.313 163.485C116.813 163.765 117.152 164.711 117.604 166.355C118.271 168.734 118.338 169.617 117.428 169.871ZM115.188 161.777C111.877 162.698 112.563 165.174 113.231 167.571L113.234 167.575C113.894 169.975 114.587 172.455 117.891 171.538C121.194 170.621 120.508 168.142 119.845 165.741C119.177 163.339 118.491 160.864 115.188 161.777Z" fill="white"/>
<path d="M125.597 162.444L122.972 163.466L122.194 161.471L124.945 160.409L124.307 158.765L119.419 160.655L122.972 169.801L125.105 168.973L123.606 165.11L126.235 164.089L125.597 162.444Z" fill="white"/>
<path d="M132.308 158.071L132.479 158.739L132.106 159.469L131.275 159.928L130.101 157.825L130.843 157.412C131.431 157.091 131.868 157.285 132.308 158.071ZM134.817 158.612C134.817 158.089 134.649 157.519 134.31 156.904C133.799 155.994 133.206 155.435 132.521 155.238C131.916 155.059 131.234 155.182 130.507 155.585L127.245 157.392L132.002 165.975L134.004 164.86L132.129 161.479L133.288 160.833C134.303 160.274 134.817 159.518 134.817 158.612Z" fill="white"/>
<path d="M138.788 150.13L136.913 151.45L140.809 156.979C141.134 157.441 141.271 157.848 141.212 158.18L140.749 158.832L140.014 159.029C139.679 158.974 139.343 158.702 139.019 158.236L135.123 152.707L133.251 154.026L137.222 159.664C138.348 161.263 140 161.468 141.763 160.227C144.325 158.418 143.173 156.357 142.755 155.767L138.788 150.13Z" fill="white"/>
<path d="M144.724 150.092L144.459 150.652L143.907 151.136L142.363 149.377L142.912 148.896C143.214 148.631 143.646 148.422 144.291 149.15L144.724 150.092ZM148.639 150.652C147.762 149.653 146.923 149.82 146.39 150.078L146.644 149.176C146.644 148.608 146.39 148.031 145.879 147.453C144.787 146.211 143.471 146.059 142.352 147.038L139.478 149.567L145.95 156.934L147.673 155.42L145.078 152.464L145.354 152.225L146.278 151.792C146.688 151.819 147.039 152.225 147.446 152.687L147.755 153.045C148.117 153.464 148.482 153.892 149.011 154.13L149.105 154.171L150.815 152.661L150.596 152.565C150.283 152.43 149.265 151.364 148.639 150.652Z" fill="white"/>
<path d="M144.857 144.668L151.896 151.501L153.5 149.853L146.453 143.019L144.857 144.668Z" fill="white"/>
<path d="M158.922 137.487L155.327 131.835L155.2 131.638L153.87 133.587C153.87 133.587 155.771 136.29 156.155 136.846C155.506 136.674 152.334 135.839 152.334 135.839L151.185 137.52L146.887 142.67L148.329 143.874L149.753 142.177L155.83 147.263L157.303 145.507L151.222 140.418L152.639 138.725L151.935 138.132C153.799 138.55 157.609 139.389 157.653 139.397L160.48 141.323L161.767 139.422L158.922 137.487Z" fill="white"/>
</svg>
