<svg width="20" height="17" viewBox="0 0 20 17" fill="none" xmlns="http://www.w3.org/2000/svg">
    <path fill-rule="evenodd" clip-rule="evenodd" d="M3 2.6665C2.73478 2.6665 2.48043 2.77186 2.29289 2.9594C2.21971 3.03258 2.15904 3.11595 2.11226 3.20616L10 8.46465L17.8877 3.20616C17.841 3.11595 17.7803 3.03258 17.7071 2.9594C17.5196 2.77186 17.2652 2.6665 17 2.6665H3ZM18 5.53502L10.5547 10.4986C10.2188 10.7225 9.7812 10.7225 9.4453 10.4986L2 5.53502V13.6665C2 13.9317 2.10536 14.1861 2.29289 14.3736C2.48043 14.5611 2.73478 14.6665 3 14.6665H17C17.2652 14.6665 17.5196 14.5611 17.7071 14.3736C17.8946 14.1861 18 13.9317 18 13.6665V5.53502ZM0.87868 1.54518C1.44129 0.982574 2.20435 0.666504 3 0.666504H17C17.7957 0.666504 18.5587 0.982574 19.1213 1.54518C19.6839 2.10779 20 2.87085 20 3.6665V13.6665C20 14.4622 19.6839 15.2252 19.1213 15.7878C18.5587 16.3504 17.7957 16.6665 17 16.6665H3C2.20435 16.6665 1.44129 16.3504 0.87868 15.7878C0.31607 15.2252 0 14.4622 0 13.6665V3.6665C0 2.87085 0.31607 2.10779 0.87868 1.54518Z" fill="currentColor"/>
</svg>
