<svg width="20" height="21" viewBox="0 0 20 21" fill="none" xmlns="http://www.w3.org/2000/svg">
<path fill-rule="evenodd" clip-rule="evenodd" d="M6.17317 1.42771C7.38642 0.925162 8.68678 0.666504 10 0.666504C11.3132 0.666504 12.6136 0.925162 13.8268 1.42771C15.0401 1.93026 16.1425 2.66685 17.0711 3.59544C17.9997 4.52402 18.7362 5.62641 19.2388 6.83967C19.7413 8.05293 20 9.35329 20 10.6665C20 11.9797 19.7413 13.2801 19.2388 14.4933C18.7362 15.7066 17.9997 16.809 17.0711 17.7376C16.896 17.9127 16.7147 18.081 16.5276 18.2422C16.4981 18.2706 16.4667 18.2973 16.4336 18.3221C15.652 18.9789 14.7732 19.5133 13.8268 19.9053C12.6136 20.4078 11.3132 20.6665 10 20.6665C8.68678 20.6665 7.38642 20.4078 6.17317 19.9053C4.95991 19.4028 3.85752 18.6662 2.92893 17.7376C2.00035 16.809 1.26375 15.7066 0.761205 14.4933C0.258658 13.2801 0 11.9797 0 10.6665C0 9.35328 0.258658 8.05293 0.761205 6.83967C1.26375 5.62641 2.00035 4.52402 2.92893 3.59544C3.85752 2.66685 4.95991 1.93026 6.17317 1.42771ZM16.1151 15.8245C16.6449 15.1965 17.0756 14.4895 17.391 13.728C17.7931 12.7574 18 11.7171 18 10.6665C18 9.61593 17.7931 8.57564 17.391 7.60504C16.989 6.63443 16.3997 5.75252 15.6569 5.00965C14.914 4.26678 14.0321 3.67751 13.0615 3.27547C12.0909 2.87343 11.0506 2.6665 10 2.6665C8.94942 2.6665 7.90914 2.87343 6.93853 3.27547C5.96793 3.67751 5.08601 4.26678 4.34315 5.00965C3.60028 5.75252 3.011 6.63443 2.60896 7.60504C2.20693 8.57564 2 9.61593 2 10.6665C2 11.7171 2.20693 12.7574 2.60896 13.728C2.92443 14.4896 3.35518 15.1966 3.88497 15.8246C4.19343 15.3781 4.57449 14.9819 5.0156 14.654C5.87837 14.0125 6.92491 13.6663 8 13.6665M5.38216 17.1992C5.58737 16.8332 5.8683 16.5122 6.20889 16.259C6.7266 15.8741 7.35459 15.6663 7.9997 15.6665H12C12.6459 15.6663 13.2751 15.8746 13.7931 16.2603C14.1329 16.5133 14.4132 16.8338 14.618 17.1991C14.1338 17.5413 13.6119 17.8295 13.0615 18.0575C12.0909 18.4596 11.0506 18.6665 10 18.6665C8.94942 18.6665 7.90914 18.4596 6.93853 18.0575C6.38817 17.8296 5.86632 17.5414 5.38216 17.1992ZM16.1151 15.8245C15.8074 15.3791 15.4274 14.9837 14.9876 14.6562C14.1243 14.0133 13.0765 13.6662 12 13.6665C11.9999 13.6665 12.0001 13.6665 12 13.6665H8M7.17157 5.83808C7.92172 5.08793 8.93913 4.6665 10 4.6665C11.0609 4.6665 12.0783 5.08793 12.8284 5.83808C13.5786 6.58822 14 7.60564 14 8.6665C14 9.72737 13.5786 10.7448 12.8284 11.4949C12.0783 12.2451 11.0609 12.6665 10 12.6665C8.93913 12.6665 7.92172 12.2451 7.17157 11.4949C6.42143 10.7448 6 9.72737 6 8.6665C6 7.60564 6.42143 6.58822 7.17157 5.83808ZM10 6.6665C9.46957 6.6665 8.96086 6.87722 8.58579 7.25229C8.21071 7.62736 8 8.13607 8 8.6665C8 9.19694 8.21071 9.70565 8.58579 10.0807C8.96086 10.4558 9.46957 10.6665 10 10.6665C10.5304 10.6665 11.0391 10.4558 11.4142 10.0807C11.7893 9.70565 12 9.19694 12 8.6665C12 8.13607 11.7893 7.62736 11.4142 7.25229C11.0391 6.87722 10.5304 6.6665 10 6.6665Z" fill="#787878"/>
</svg>
