<svg width="19" height="20" viewBox="0 0 19 20" fill="none" xmlns="http://www.w3.org/2000/svg">
<path fill-rule="evenodd" clip-rule="evenodd" d="M3 2.6665C2.73478 2.6665 2.48043 2.77186 2.29289 2.9594C2.11141 3.14088 2.00688 3.38495 2.00033 3.64087C2.23032 7.2848 3.78159 10.7202 6.36394 13.3026C8.94628 15.8849 12.3817 17.4362 16.0256 17.6662C16.2816 17.6596 16.5256 17.5551 16.7071 17.3736C16.8946 17.1861 17 16.9317 17 16.6665V13.3435L13.4193 11.9113L12.3575 13.681C12.0897 14.1273 11.5244 14.2936 11.0577 14.0634C8.68874 12.895 6.77146 10.9778 5.60314 8.60882C5.37294 8.14206 5.53924 7.57677 5.9855 7.30901L7.75523 6.24717L6.32297 2.6665H3ZM0.87868 1.54518C1.44129 0.982574 2.20435 0.666504 3 0.666504H7C7.4089 0.666504 7.77661 0.915455 7.92848 1.29511L9.92848 6.29511C10.1108 6.75083 9.93537 7.27147 9.5145 7.524L7.8405 8.5284C8.66436 9.87202 9.79449 11.0021 11.1381 11.826L12.1425 10.152C12.395 9.73113 12.9157 9.55574 13.3714 9.73803L18.3714 11.738C18.751 11.8899 19 12.2576 19 12.6665V16.6665C19 17.4622 18.6839 18.2252 18.1213 18.7878C17.5587 19.3504 16.7957 19.6665 16 19.6665C15.9798 19.6665 15.9595 19.6659 15.9393 19.6647C11.7948 19.4128 7.88576 17.6528 4.94972 14.7168C2.01369 11.7808 0.253707 7.87169 0.00184143 3.72716C0.000614107 3.70697 0 3.68674 0 3.6665C0 2.87085 0.31607 2.10779 0.87868 1.54518Z" fill="#787878"/>
</svg>
