<svg width="27" height="22" viewBox="0 0 27 22" fill="none" xmlns="http://www.w3.org/2000/svg">
<path fill-rule="evenodd" clip-rule="evenodd" d="M2.66667 3.74167V18.1767C4.1538 17.621 5.73394 17.3333 7.33333 17.3333C8.93273 17.3333 10.5129 17.621 12 18.1767V3.74167C10.549 3.0357 8.95352 2.66667 7.33333 2.66667C5.71315 2.66667 4.11767 3.0357 2.66667 3.74167ZM14.6667 3.74167V18.1767C16.1538 17.621 17.7339 17.3333 19.3333 17.3333C20.9327 17.3333 22.5129 17.621 24 18.1767V3.74167C22.549 3.0357 20.9535 2.66667 19.3333 2.66667C17.7132 2.66667 16.1177 3.0357 14.6667 3.74167ZM13.3333 1.42628C11.4754 0.490072 9.42079 0 7.33333 0C4.99284 0 2.69359 0.616084 0.666667 1.78633C0.254132 2.02451 0 2.46467 0 2.94103V20.2744C0 20.7507 0.254132 21.1909 0.666667 21.4291C1.0792 21.6672 1.58747 21.6672 2 21.4291C3.62154 20.4929 5.46094 20 7.33333 20C9.20572 20 11.0451 20.4929 12.6667 21.4291C13.0792 21.6672 13.5875 21.6672 14 21.4291C15.6215 20.4929 17.4609 20 19.3333 20C21.2057 20 23.0451 20.4929 24.6667 21.4291C25.0792 21.6672 25.5875 21.6672 26 21.4291C26.4125 21.1909 26.6667 20.7507 26.6667 20.2744V2.94103C26.6667 2.46467 26.4125 2.02451 26 1.78633C23.9731 0.616084 21.6738 0 19.3333 0C17.2459 0 15.1912 0.490072 13.3333 1.42628Z" fill="#58585A"/>
</svg>
