<svg width="20" height="19" viewBox="0 0 20 19" fill="none" xmlns="http://www.w3.org/2000/svg">
    <path fill-rule="evenodd" clip-rule="evenodd" d="M0.585786 1.25229C0.960859 0.877218 1.46957 0.666504 2 0.666504H18C18.5304 0.666504 19.0391 0.877218 19.4142 1.25229C19.7893 1.62736 20 2.13607 20 2.6665V12.6665C20 13.1969 19.7893 13.7056 19.4142 14.0807C19.0391 14.4558 18.5304 14.6665 18 14.6665H14V16.6665H15C15.5523 16.6665 16 17.1142 16 17.6665C16 18.2188 15.5523 18.6665 15 18.6665H5C4.44772 18.6665 4 18.2188 4 17.6665C4 17.1142 4.44772 16.6665 5 16.6665H6V14.6665H2C1.46957 14.6665 0.960859 14.4558 0.585786 14.0807C0.210714 13.7056 0 13.1969 0 12.6665V2.6665C0 2.13607 0.210714 1.62736 0.585786 1.25229ZM8 14.6665V16.6665H12V14.6665H8ZM2 12.6665V2.6665L18 2.6665V12.6665H2Z" fill="currentColor"/>
</svg>
