<svg width="24" height="18" viewBox="0 0 24 18" fill="none" xmlns="http://www.w3.org/2000/svg">
<path d="M23.7005 4.2C23.4005 2.25 22.5005 0.9 20.4005 0.6C17.1005 1.3411e-07 12.0005 0 12.0005 0C12.0005 0 6.90049 1.3411e-07 3.60049 0.6C1.50049 0.9 0.450488 2.25 0.300488 4.2C0.000487991 6.15 0.000488281 9 0.000488281 9C0.000488281 9 0.000487991 11.85 0.300488 13.8C0.600488 15.75 1.50049 17.1 3.60049 17.4C6.90049 18 12.0005 18 12.0005 18C12.0005 18 17.1005 18 20.4005 17.4C22.5005 16.95 23.4005 15.75 23.7005 13.8C24.0005 11.85 24.0005 9 24.0005 9C24.0005 9 24.0005 6.15 23.7005 4.2ZM9.00049 13.5V4.5L16.5005 9L9.00049 13.5Z" fill="white"/>
</svg>
