<?xml version="1.0" encoding="UTF-8"?><svg id="a" xmlns="http://www.w3.org/2000/svg" viewBox="0 0 560 150"><circle cx="280.5" cy="75.5" r="73.5" style="fill:#fff; stroke:#4e917a; stroke-miterlimit:10;"/><circle cx="280.5" cy="75.5" r="66" style="fill:#4e917a;"/><rect x="67.5" y="38.5" width="426" height="75" rx="3.29" ry="3.29" style="fill:#fff; stroke:#026241; stroke-miterlimit:10;"/><path d="M83.42,96.48v-41.69h32.26v9.74h-18.58v7.65h14.73v9.74h-14.73v14.56h-13.68Z" style="fill:#026241;"/><path d="M122.33,96.48v-41.69h34.07v9.74h-20.39v5.92h17.19v9.74h-17.19v6.54h21.24v9.74h-34.92Z" style="fill:#026241;"/><path d="M202.99,96.48h-13.91c-.42-1.23-.62-3.79-.62-7.67,0-2.83-.44-4.68-1.33-5.55-.87-.89-2.53-1.33-4.98-1.33h-5.13v14.56h-13.68v-41.69h19.37c6,0,10.37.65,13.11,1.95,3.78,1.77,5.66,5.08,5.66,9.91,0,2.93-.67,5.24-2.01,6.94-1.34,1.68-3.02,2.76-5.04,3.23,2.81.85,4.69,2.06,5.64,3.62.94,1.55,1.42,3.96,1.42,7.25v4.22c0,2.23.5,3.34,1.5,3.34v1.22ZM188.66,68.81c0-2.85-1.91-4.28-5.72-4.28h-5.92v8.24h5.32c4.21,0,6.32-1.32,6.32-3.96Z" style="fill:#026241;"/><path d="M208.25,54.79h16.45l7.28,26.05,7.28-26.05h16.45v41.69h-12.18v-24.1l-6.85,24.1h-9.4l-6.85-24.1v24.1h-12.18v-41.69Z" style="fill:#026241;"/><path d="M264.07,96.48v-41.69h34.07v9.74h-20.39v5.92h17.19v9.74h-17.19v6.54h21.24v9.74h-34.92Z" style="fill:#026241;"/><path d="M305.51,54.79h12.83l14.36,21.81v-21.81h13.06v41.69h-12.83l-14.36-21.98v21.98h-13.06v-41.69Z" style="fill:#026241;"/><path d="M351.58,54.79h38.15v10.96h-12.23v30.73h-13.68v-30.73h-12.23v-10.96Z" style="fill:#026241;"/><path d="M396.16,96.48v-41.69h34.07v9.74h-20.39v5.92h17.19v9.74h-17.19v6.54h21.24v9.74h-34.92Z" style="fill:#026241;"/><path d="M437.59,54.79h12.83l14.36,21.81v-21.81h13.06v41.69h-12.83l-14.36-21.98v21.98h-13.06v-41.69Z" style="fill:#026241;"/><path d="M500.11,40.81h6.59v1.75h-2.13v5.43h-2.32v-5.43h-2.13v-1.75Z" style="fill:#026241;"/><path d="M510.52,40.81l1.17,4.66,1.35-4.66h2.92v7.18h-2.53v-2.33l.2-2.13-1.17,4.47h-1.55l-1.17-4.47.2,2.13v2.33h-2.33v-7.18h2.91Z" style="fill:#026241;"/></svg>