<?xml version="1.0" encoding="UTF-8"?><svg id="a" xmlns="http://www.w3.org/2000/svg" viewBox="0 0 560 150"><circle cx="280.5" cy="75.5" r="73.5" style="fill:#f9f9f9; stroke:#a86f72; stroke-miterlimit:10;"/><circle cx="280.5" cy="75.5" r="66" style="fill:#a86f72;"/><rect x="84.5" y="38.5" width="392" height="75" rx="3.29" ry="3.29" style="fill:#fff; stroke:#833135; stroke-miterlimit:10;"/><path d="M104.35,96.48v-41.69h19.97c11.21,0,16.82,3.48,16.82,10.45,0,1.91-.49,3.66-1.47,5.27-.98,1.59-2.34,2.86-4.08,3.82,2.4.68,4.17,1.87,5.32,3.57,1.15,1.68,1.73,3.78,1.73,6.29,0,8.19-5.79,12.29-17.36,12.29h-20.93ZM118.03,71.47h5.69c3.06,0,4.59-1.26,4.59-3.79,0-2.1-1.62-3.14-4.87-3.14h-5.41v6.94ZM118.03,86.74h6.32c3.64,0,5.47-1.25,5.47-3.74,0-1.64-.59-2.7-1.76-3.17-1.15-.49-2.93-.74-5.32-.74h-4.7v7.65Z" style="fill:#833135;"/><path d="M149.69,54.79h13.68v41.69h-13.68v-41.69Z" style="fill:#833135;"/><path d="M170.11,75.3c0-6.68,2.04-11.95,6.12-15.8,4.1-3.85,9.33-5.78,15.69-5.78s11.84,2,15.8,6c3.98,3.98,5.98,9.23,5.98,15.75s-1.96,12.04-5.89,16.06c-3.91,4.02-9.15,6.03-15.72,6.03s-12.19-1.98-16.11-5.95c-3.91-3.96-5.86-9.4-5.86-16.31ZM183.79,75.35c0,3.66.69,6.58,2.07,8.75,1.38,2.17,3.4,3.26,6.06,3.26s4.61-1,6-3c1.4-2.02,2.1-4.96,2.1-8.81,0-3.36-.72-6.14-2.15-8.33-1.42-2.21-3.45-3.31-6.09-3.31s-4.54,1.02-5.92,3.06c-1.38,2.02-2.07,4.81-2.07,8.38Z" style="fill:#833135;"/><path d="M217.88,76.34h15.41v10.65h-15.41v-10.65Z" style="fill:#833135;"/><path d="M265.63,80.34h13.25c-.74,5.48-2.89,9.71-6.46,12.72-3.55,3-8.05,4.5-13.51,4.5-6.91,0-12.35-1.96-16.31-5.89-3.96-3.95-5.95-9.29-5.95-16.03,0-6.38,1.9-11.63,5.69-15.75,3.81-4.12,8.88-6.17,15.21-6.17s11.2,1.51,14.73,4.53c3.55,3,5.6,7.23,6.15,12.69h-13.06c-.19-2.1-.92-3.79-2.18-5.07-1.25-1.3-2.93-1.95-5.04-1.95-5.21,0-7.82,4-7.82,12.01,0,4.06.68,6.99,2.04,8.78,1.38,1.77,3.46,2.66,6.26,2.66,1.94,0,3.52-.6,4.73-1.81,1.23-1.23,1.98-2.96,2.27-5.21Z" style="fill:#833135;"/><path d="M284.55,54.79h13.68v13.99h13.06v-13.99h13.68v41.69h-13.68v-16.28h-13.06v16.28h-13.68v-41.69Z" style="fill:#833135;"/><path d="M333.32,54.79h13.68v31.95h18.58v9.74h-32.26v-41.69Z" style="fill:#833135;"/><path d="M369.85,75.3c0-6.68,2.04-11.95,6.12-15.8,4.1-3.85,9.33-5.78,15.69-5.78s11.84,2,15.8,6c3.98,3.98,5.98,9.23,5.98,15.75s-1.96,12.04-5.89,16.06c-3.91,4.02-9.15,6.03-15.72,6.03s-12.19-1.98-16.11-5.95c-3.91-3.96-5.86-9.4-5.86-16.31ZM383.53,75.35c0,3.66.69,6.58,2.07,8.75s3.4,3.26,6.06,3.26,4.61-1,6-3c1.4-2.02,2.1-4.96,2.1-8.81,0-3.36-.72-6.14-2.15-8.33-1.42-2.21-3.45-3.31-6.09-3.31s-4.54,1.02-5.92,3.06c-1.38,2.02-2.07,4.81-2.07,8.38Z" style="fill:#833135;"/><path d="M459.09,96.48h-13.91c-.42-1.23-.62-3.79-.62-7.67,0-2.83-.44-4.68-1.33-5.55-.87-.89-2.53-1.33-4.98-1.33h-5.13v14.56h-13.68v-41.69h19.37c6,0,10.38.65,13.11,1.95,3.78,1.77,5.66,5.08,5.66,9.91,0,2.93-.67,5.24-2.01,6.94-1.34,1.68-3.02,2.76-5.04,3.23,2.81.85,4.69,2.06,5.64,3.62.94,1.55,1.42,3.96,1.42,7.25v4.22c0,2.23.5,3.34,1.5,3.34v1.22ZM444.76,68.81c0-2.85-1.91-4.28-5.72-4.28h-5.92v8.24h5.32c4.21,0,6.32-1.32,6.32-3.96Z" style="fill:#833135;"/><path d="M483.11,40.81h6.59v1.75h-2.13v5.43h-2.32v-5.43h-2.13v-1.75Z" style="fill:#833135;"/><path d="M493.52,40.81l1.17,4.66,1.35-4.66h2.92v7.18h-2.53v-2.33l.2-2.13-1.17,4.47h-1.55l-1.17-4.47.2,2.13v2.33h-2.33v-7.18h2.91Z" style="fill:#833135;"/></svg>