<?xml version="1.0" encoding="UTF-8"?><svg id="a" xmlns="http://www.w3.org/2000/svg" viewBox="0 0 560 150"><circle cx="280.5" cy="75.5" r="73.5" style="fill:#fff; stroke:#9fcd77; stroke-miterlimit:10;"/><circle cx="280.5" cy="75.5" r="66" style="fill:#9fcd77;"/><rect x="84.5" y="38.5" width="392" height="75" rx="3.29" ry="3.29" style="fill:#fff; stroke:#77be43; stroke-miterlimit:10;"/><path d="M128.67,80.34h13.25c-.74,5.48-2.89,9.71-6.46,12.72-3.55,3-8.05,4.5-13.51,4.5-6.91,0-12.35-1.96-16.31-5.89-3.96-3.95-5.95-9.29-5.95-16.03,0-6.38,1.9-11.63,5.69-15.75,3.81-4.12,8.88-6.17,15.21-6.17s11.2,1.51,14.73,4.53c3.55,3,5.6,7.23,6.15,12.69h-13.06c-.19-2.1-.92-3.79-2.18-5.07-1.25-1.3-2.93-1.95-5.04-1.95-5.21,0-7.82,4-7.82,12.01,0,4.06.68,6.99,2.04,8.78,1.38,1.77,3.46,2.66,6.26,2.66,1.94,0,3.52-.6,4.73-1.81,1.23-1.23,1.98-2.96,2.27-5.21Z" style="fill:#77be43;"/><path d="M148.05,96.48v-41.69h34.07v9.74h-20.39v5.92h17.19v9.74h-17.19v6.54h21.24v9.74h-34.92Z" style="fill:#77be43;"/><path d="M228.7,96.48h-13.91c-.42-1.23-.62-3.79-.62-7.67,0-2.83-.44-4.68-1.33-5.55-.87-.89-2.53-1.33-4.98-1.33h-5.13v14.56h-13.68v-41.69h19.37c6,0,10.37.65,13.11,1.95,3.78,1.77,5.66,5.08,5.66,9.91,0,2.93-.67,5.24-2.01,6.94-1.34,1.68-3.02,2.76-5.04,3.23,2.81.85,4.69,2.06,5.64,3.62.94,1.55,1.42,3.96,1.42,7.25v4.22c0,2.23.5,3.34,1.5,3.34v1.22ZM214.37,68.81c0-2.85-1.91-4.28-5.72-4.28h-5.92v8.24h5.32c4.21,0,6.32-1.32,6.32-3.96Z" style="fill:#77be43;"/><path d="M232.36,54.79h38.15v10.96h-12.23v30.73h-13.68v-30.73h-12.23v-10.96Z" style="fill:#77be43;"/><path d="M276.93,54.79h13.68v41.69h-13.68v-41.69Z" style="fill:#77be43;"/><path d="M299.5,54.79h13.68v31.95h18.58v9.74h-32.26v-41.69Z" style="fill:#77be43;"/><path d="M338.19,54.79h13.68v31.95h18.58v9.74h-32.26v-41.69Z" style="fill:#77be43;"/><path d="M376.42,54.79h13.68v25.57c0,2.36.53,4.12,1.59,5.27s2.62,1.73,4.67,1.73,3.53-.58,4.64-1.73c1.13-1.17,1.7-3.01,1.7-5.52v-25.32h13.68v23.73c0,6.55-1.54,11.37-4.62,14.44-3.08,3.06-8.15,4.59-15.21,4.59s-12.28-1.53-15.43-4.59c-3.13-3.08-4.7-7.89-4.7-14.44v-23.73Z" style="fill:#77be43;"/><path d="M435.55,83.51c.21,1.36.9,2.45,2.07,3.26,1.17.79,2.53,1.19,4.08,1.19h.34c1.64,0,2.93-.25,3.85-.76.94-.53,1.42-1.3,1.42-2.32,0-.87-.5-1.6-1.5-2.18s-2.87-1.23-5.61-1.93l-5.32-1.42c-3.85-.96-6.73-2.48-8.64-4.56-1.89-2.08-2.83-4.68-2.83-7.82,0-3.85,1.52-7.02,4.56-9.52,3.06-2.49,7.55-3.74,13.48-3.74,5.02,0,9.09,1.1,12.21,3.29,3.13,2.17,4.98,5.46,5.55,9.86h-13.06c-.49-2.36-2.32-3.54-5.49-3.54-2.66,0-3.99.8-3.99,2.41,0,1.28,1.23,2.3,3.68,3.06,2.45.76,5.14,1.55,8.07,2.38,4.61,1.32,7.78,2.93,9.52,4.81,1.76,1.89,2.63,4.31,2.63,7.28,0,4.32-1.64,7.79-4.93,10.39-3.27,2.61-8.12,3.91-14.56,3.91-5.04,0-9.36-1.27-12.94-3.82-3.57-2.57-5.45-5.98-5.64-10.22h13.06Z" style="fill:#77be43;"/><rect x="476" y="40.81" width="30" height="8.19" style="fill:none;"/><path d="M483.11,40.81h6.59v1.75h-2.13v5.43h-2.32v-5.43h-2.13v-1.75Z" style="fill:#77be43;"/><path d="M493.52,40.81l1.17,4.66,1.35-4.66h2.92v7.18h-2.53v-2.33l.2-2.13-1.17,4.47h-1.55l-1.17-4.47.2,2.13v2.33h-2.33v-7.18h2.91Z" style="fill:#77be43;"/></svg>