<?xml version="1.0" encoding="UTF-8"?><svg id="a" xmlns="http://www.w3.org/2000/svg" viewBox="0 0 560 150"><circle cx="280.5" cy="75.5" r="73.5" style="fill:#fff; stroke:#e5c568; stroke-miterlimit:10;"/><circle cx="280.5" cy="75.5" r="66" style="fill:#e5c568;"/><rect x="155.5" y="38.5" width="250" height="75" rx="3.29" ry="3.29" style="fill:#fff; stroke:#daac27; stroke-miterlimit:10;"/><path d="M170.12,96.48v-41.69h18.89c6.63,0,11.79,1.71,15.49,5.13,3.72,3.42,5.58,8.38,5.58,14.9,0,7.12-1.82,12.51-5.47,16.17-3.64,3.66-9.05,5.49-16.23,5.49h-18.27ZM183.8,86.74h2.72c6.59,0,9.88-3.73,9.88-11.19,0-4.53-.81-7.5-2.44-8.89-1.62-1.42-4.13-2.12-7.5-2.12h-2.66v22.2Z" style="fill:#daac27;"/><path d="M241.63,80.34h13.25c-.74,5.48-2.89,9.71-6.46,12.72-3.55,3-8.05,4.5-13.51,4.5-6.91,0-12.35-1.96-16.31-5.89-3.96-3.95-5.95-9.29-5.95-16.03,0-6.38,1.9-11.63,5.69-15.75,3.81-4.12,8.88-6.17,15.21-6.17s11.2,1.51,14.73,4.53c3.55,3,5.6,7.23,6.15,12.69h-13.06c-.19-2.1-.92-3.79-2.18-5.07-1.25-1.3-2.93-1.95-5.04-1.95-5.21,0-7.82,4-7.82,12.01,0,4.06.68,6.99,2.04,8.78,1.38,1.77,3.46,2.66,6.26,2.66,1.94,0,3.52-.6,4.73-1.81,1.23-1.23,1.98-2.96,2.27-5.21Z" style="fill:#daac27;"/><path d="M257.15,96.48l14.95-41.69h13.91l14.95,41.69h-13.68l-1.56-5.44h-13.59l-1.5,5.44h-13.48ZM274.74,82.38h8.55l-4.33-14.87-4.22,14.87Z" style="fill:#daac27;"/><path d="M305.47,96.48v-41.69h18.89c6.63,0,11.79,1.71,15.49,5.13,3.72,3.42,5.58,8.38,5.58,14.9,0,7.12-1.82,12.51-5.47,16.17s-9.05,5.49-16.23,5.49h-18.27ZM319.14,86.74h2.72c6.59,0,9.88-3.73,9.88-11.19,0-4.53-.81-7.5-2.44-8.89-1.62-1.42-4.12-2.12-7.5-2.12h-2.66v22.2Z" style="fill:#daac27;"/><path d="M353.61,72.54h13.87v-13.87h8.25v13.87h13.87v8.25h-13.87v13.87h-8.25v-13.87h-13.87v-8.25Z" style="fill:#daac27;"/><path d="M411.18,40.81h7.23v2.08h-2.32v5.83h-2.59v-5.83h-2.32v-2.08Z" style="fill:#daac27;"/><path d="M419.43,40.81h3.12l1.38,4.94,1.38-4.94h3.12v7.91h-2.31v-4.57l-1.3,4.57h-1.78l-1.3-4.57v4.57h-2.31v-7.91Z" style="fill:#daac27;"/></svg>