<?xml version="1.0" encoding="UTF-8"?><svg id="a" xmlns="http://www.w3.org/2000/svg" viewBox="0 0 560 150"><circle cx="280.5" cy="75.5" r="73.5" style="fill:#fff; stroke:#a49497; stroke-miterlimit:10;"/><circle cx="280.5" cy="75.5" r="66" style="fill:#a49497;"/><rect x="2.5" y="38.5" width="556" height="75" rx="3.29" ry="3.29" style="fill:#fff; stroke:#7c666a; stroke-miterlimit:10;"/><path d="M31.17,83.51c.21,1.36.9,2.45,2.07,3.26,1.17.79,2.53,1.19,4.08,1.19h.34c1.64,0,2.93-.25,3.85-.76.94-.53,1.42-1.3,1.42-2.32,0-.87-.5-1.6-1.5-2.18-1-.58-2.87-1.23-5.61-1.93l-5.32-1.42c-3.85-.96-6.73-2.48-8.64-4.56-1.89-2.08-2.83-4.68-2.83-7.82,0-3.85,1.52-7.02,4.56-9.52,3.06-2.49,7.55-3.74,13.48-3.74,5.02,0,9.09,1.1,12.21,3.29,3.13,2.17,4.98,5.46,5.55,9.86h-13.06c-.49-2.36-2.32-3.54-5.49-3.54-2.66,0-3.99.8-3.99,2.41,0,1.28,1.23,2.3,3.68,3.06,2.45.76,5.14,1.55,8.07,2.38,4.61,1.32,7.78,2.93,9.52,4.81,1.76,1.89,2.63,4.31,2.63,7.28,0,4.32-1.64,7.79-4.93,10.39-3.27,2.61-8.12,3.91-14.56,3.91-5.04,0-9.36-1.27-12.94-3.82-3.57-2.57-5.45-5.98-5.64-10.22h13.06Z" style="fill:#7c666a;"/><path d="M60.54,75.3c0-6.68,2.04-11.95,6.12-15.8,4.1-3.85,9.33-5.78,15.69-5.78s11.84,2,15.8,6c3.98,3.98,5.98,9.23,5.98,15.75s-1.96,12.04-5.89,16.06c-3.91,4.02-9.15,6.03-15.72,6.03s-12.19-1.98-16.11-5.95c-3.91-3.96-5.86-9.4-5.86-16.31ZM74.21,75.35c0,3.66.69,6.58,2.07,8.75,1.38,2.17,3.4,3.26,6.06,3.26s4.61-1,6-3c1.4-2.02,2.1-4.96,2.1-8.81,0-3.36-.72-6.14-2.15-8.33-1.42-2.21-3.45-3.31-6.09-3.31s-4.54,1.02-5.92,3.06c-1.38,2.02-2.07,4.81-2.07,8.38Z" style="fill:#7c666a;"/><path d="M110.35,96.48v-41.69h18.89c6.63,0,11.79,1.71,15.49,5.13,3.72,3.42,5.58,8.38,5.58,14.9,0,7.12-1.82,12.51-5.47,16.17-3.64,3.66-9.05,5.49-16.23,5.49h-18.27ZM124.03,86.74h2.72c6.59,0,9.88-3.73,9.88-11.19,0-4.53-.81-7.5-2.44-8.89-1.62-1.42-4.13-2.12-7.5-2.12h-2.66v22.2Z" style="fill:#7c666a;"/><path d="M156.12,54.79h13.68v41.69h-13.68v-41.69Z" style="fill:#7c666a;"/><path d="M178.24,54.79h13.68v25.57c0,2.36.53,4.12,1.59,5.27,1.06,1.15,2.61,1.73,4.67,1.73s3.53-.58,4.64-1.73c1.13-1.17,1.7-3.01,1.7-5.52v-25.32h13.68v23.73c0,6.55-1.54,11.37-4.62,14.44-3.08,3.06-8.15,4.59-15.21,4.59s-12.28-1.53-15.43-4.59c-3.13-3.08-4.7-7.89-4.7-14.44v-23.73Z" style="fill:#7c666a;"/><path d="M225.93,54.79h16.45l7.28,26.05,7.28-26.05h16.45v41.69h-12.18v-24.1l-6.85,24.1h-9.4l-6.85-24.1v24.1h-12.18v-41.69Z" style="fill:#7c666a;"/><path d="M300.83,96.48v-41.69h19.97c11.21,0,16.82,3.48,16.82,10.45,0,1.91-.49,3.66-1.47,5.27-.98,1.59-2.34,2.86-4.08,3.82,2.4.68,4.17,1.87,5.32,3.57,1.15,1.68,1.73,3.78,1.73,6.29,0,8.19-5.79,12.29-17.36,12.29h-20.93ZM314.51,71.47h5.69c3.06,0,4.59-1.26,4.59-3.79,0-2.1-1.62-3.14-4.87-3.14h-5.41v6.94ZM314.51,86.74h6.32c3.64,0,5.47-1.25,5.47-3.74,0-1.64-.58-2.7-1.76-3.17-1.15-.49-2.93-.74-5.32-.74h-4.7v7.65Z" style="fill:#7c666a;"/><path d="M346.17,54.79h13.68v41.69h-13.68v-41.69Z" style="fill:#7c666a;"/><path d="M394.49,80.34h13.25c-.74,5.48-2.89,9.71-6.46,12.72-3.55,3-8.05,4.5-13.51,4.5-6.91,0-12.35-1.96-16.31-5.89-3.96-3.95-5.95-9.29-5.95-16.03,0-6.38,1.9-11.63,5.69-15.75,3.81-4.12,8.88-6.17,15.21-6.17s11.2,1.51,14.73,4.53c3.55,3,5.6,7.23,6.15,12.69h-13.06c-.19-2.1-.92-3.79-2.18-5.07-1.25-1.3-2.93-1.95-5.04-1.95-5.21,0-7.82,4-7.82,12.01,0,4.06.68,6.99,2.04,8.78,1.38,1.77,3.46,2.66,6.26,2.66,1.94,0,3.52-.6,4.73-1.81s1.98-2.96,2.27-5.21Z" style="fill:#7c666a;"/><path d="M410.01,96.48l14.95-41.69h13.91l14.95,41.69h-13.68l-1.56-5.44h-13.59l-1.5,5.44h-13.48ZM427.6,82.38h8.55l-4.33-14.87-4.22,14.87Z" style="fill:#7c666a;"/><path d="M497.75,96.48h-13.91c-.42-1.23-.62-3.79-.62-7.67,0-2.83-.44-4.68-1.33-5.55-.87-.89-2.53-1.33-4.98-1.33h-5.13v14.56h-13.68v-41.69h19.37c6,0,10.38.65,13.11,1.95,3.78,1.77,5.66,5.08,5.66,9.91,0,2.93-.67,5.24-2.01,6.94-1.34,1.68-3.02,2.76-5.04,3.23,2.81.85,4.69,2.06,5.64,3.62.94,1.55,1.42,3.96,1.42,7.25v4.22c0,2.23.5,3.34,1.5,3.34v1.22ZM483.42,68.81c0-2.85-1.91-4.28-5.72-4.28h-5.92v8.24h5.32c4.21,0,6.32-1.32,6.32-3.96Z" style="fill:#7c666a;"/><path d="M503.86,96.48v-41.69h19.97c11.21,0,16.82,3.48,16.82,10.45,0,1.91-.49,3.66-1.47,5.27-.98,1.59-2.34,2.86-4.08,3.82,2.4.68,4.17,1.87,5.32,3.57,1.15,1.68,1.73,3.78,1.73,6.29,0,8.19-5.79,12.29-17.36,12.29h-20.93ZM517.54,71.47h5.69c3.06,0,4.59-1.26,4.59-3.79,0-2.1-1.62-3.14-4.87-3.14h-5.41v6.94ZM517.54,86.74h6.32c3.64,0,5.47-1.25,5.47-3.74,0-1.64-.58-2.7-1.76-3.17-1.15-.49-2.93-.74-5.32-.74h-4.7v7.65Z" style="fill:#7c666a;"/></svg>