<?xml version="1.0" encoding="UTF-8"?><svg id="a" xmlns="http://www.w3.org/2000/svg" viewBox="0 0 560 150"><circle cx="280.5" cy="75.5" r="73.5" style="fill:#fff; stroke:#b575a7; stroke-miterlimit:10;"/><circle cx="280.5" cy="75.5" r="66" style="fill:#b575a7;"/><rect x="137.5" y="38.5" width="285" height="75" rx="3.29" ry="3.29" style="fill:#fff; stroke:#953a81; stroke-miterlimit:10;"/><path d="M153.42,96.48v-41.69h19.97c11.21,0,16.82,3.48,16.82,10.45,0,1.91-.49,3.66-1.47,5.27-.98,1.59-2.34,2.86-4.08,3.82,2.4.68,4.17,1.87,5.32,3.57,1.15,1.68,1.73,3.78,1.73,6.29,0,8.19-5.79,12.29-17.36,12.29h-20.93ZM167.1,71.47h5.69c3.06,0,4.59-1.26,4.59-3.79,0-2.1-1.62-3.14-4.87-3.14h-5.41v6.94ZM167.1,86.74h6.32c3.64,0,5.47-1.25,5.47-3.74,0-1.64-.59-2.7-1.76-3.17-1.15-.49-2.93-.74-5.32-.74h-4.7v7.65Z" style="fill:#953a81;"/><path d="M220.34,82.43v-8.98h18.49v23.25h-8.78l-.42-4.13c-1.53,1.76-3.34,3.03-5.44,3.82-2.1.77-4.41,1.16-6.94,1.16-6.63,0-11.82-2.11-15.58-6.34-3.38-3.85-5.07-8.87-5.07-15.07,0-6.76,1.97-12.19,5.92-16.28,3.96-4.1,9.29-6.15,15.97-6.15,5.32,0,9.77,1.34,13.34,4.02,3.59,2.66,5.78,6.46,6.57,11.38h-13.06c-.49-1.72-1.32-3.01-2.49-3.88-1.15-.89-2.65-1.33-4.5-1.33-2.66,0-4.67,1.12-6.03,3.37-1.36,2.23-2.04,5.16-2.04,8.81,0,3.96.76,6.83,2.29,8.61,1.55,1.77,3.71,2.66,6.49,2.66,1.7,0,3.24-.48,4.62-1.44,1.38-.96,2.23-2.12,2.55-3.48h-5.89Z" style="fill:#953a81;"/><path d="M244.38,76.34h15.41v10.65h-15.41v-10.65Z" style="fill:#953a81;"/><path d="M265.31,54.79h16.45l7.28,26.05,7.28-26.05h16.45v41.69h-12.18v-24.1l-6.85,24.1h-9.4l-6.85-24.1v24.1h-12.18v-41.69Z" style="fill:#953a81;"/><path d="M317.28,96.48l14.95-41.69h13.91l14.95,41.69h-13.68l-1.56-5.44h-13.59l-1.5,5.44h-13.48ZM334.87,82.38h8.55l-4.33-14.87-4.22,14.87Z" style="fill:#953a81;"/><path d="M362.17,96.48l14.81-21.83-13.31-19.85h15.41l5.78,10.42,5.86-10.42h15.41l-13.93,19.85,14.16,21.83h-15.41l-6.66-11.72-6.71,11.72h-15.41Z" style="fill:#953a81;"/><path d="M429.11,40.81h6.59v1.75h-2.13v5.43h-2.32v-5.43h-2.13v-1.75Z" style="fill:#953a81;"/><path d="M439.52,40.81l1.17,4.66,1.35-4.66h2.92v7.18h-2.53v-2.33l.2-2.13-1.17,4.47h-1.55l-1.17-4.47.2,2.13v2.33h-2.33v-7.18h2.91Z" style="fill:#953a81;"/></svg>