<?xml version="1.0" encoding="UTF-8"?><svg id="a" xmlns="http://www.w3.org/2000/svg" viewBox="0 0 560 150"><circle cx="280.5" cy="75.5" r="73.5" style="fill:#fff; stroke:#9b888a; stroke-miterlimit:10;"/><circle cx="280.5" cy="75.5" r="66" style="fill:#9b888a;"/><rect x="153.5" y="38.5" width="254" height="75" rx="3.29" ry="3.29" style="fill:#fff; stroke:#7c666a; stroke-miterlimit:10;"/><path d="M182.58,83.51c.21,1.36.9,2.45,2.07,3.26,1.17.79,2.53,1.19,4.08,1.19h.34c1.64,0,2.93-.25,3.85-.76.94-.53,1.42-1.3,1.42-2.32,0-.87-.5-1.6-1.5-2.18-1-.58-2.87-1.23-5.61-1.93l-5.32-1.42c-3.85-.96-6.73-2.48-8.64-4.56-1.89-2.08-2.83-4.68-2.83-7.82,0-3.85,1.52-7.02,4.56-9.52,3.06-2.49,7.55-3.74,13.48-3.74,5.02,0,9.09,1.1,12.21,3.29,3.13,2.17,4.98,5.46,5.55,9.86h-13.06c-.49-2.36-2.32-3.54-5.49-3.54-2.66,0-3.99.8-3.99,2.41,0,1.28,1.23,2.3,3.68,3.06,2.45.76,5.14,1.55,8.07,2.38,4.61,1.32,7.78,2.93,9.52,4.81,1.76,1.89,2.63,4.31,2.63,7.28,0,4.32-1.64,7.79-4.93,10.39-3.27,2.61-8.12,3.91-14.56,3.91-5.04,0-9.36-1.27-12.94-3.82-3.57-2.57-5.45-5.98-5.64-10.22h13.06Z" style="fill:#7c666a;"/><path d="M250.61,90.36l4.7,4.67-5.78,6.09-5.44-5.49c-3.1,1.28-6.48,1.93-10.14,1.93-6.78,0-12.14-2.01-16.09-6.03-3.95-4.02-5.92-9.43-5.92-16.23,0-6.34,1.94-11.53,5.83-15.55,3.89-4.02,9.21-6.03,15.97-6.03s11.77,2.01,15.77,6.03c4,4.02,6,9.31,6,15.86,0,5.97-1.64,10.88-4.93,14.75ZM236.62,76.2l4.56,4.47c.45-1.34.68-3.07.68-5.18,0-3.49-.74-6.3-2.21-8.41-1.47-2.11-3.48-3.17-6.03-3.17-2.38,0-4.3.99-5.78,2.97s-2.21,4.81-2.21,8.47.69,6.67,2.07,8.81c1.4,2.13,3.39,3.2,5.98,3.2.55,0,1.18-.09,1.9-.28l-4.73-4.79,5.78-6.09Z" style="fill:#7c666a;"/><path d="M259.73,76.34h15.41v10.65h-15.41v-10.65Z" style="fill:#7c666a;"/><path d="M285.56,75.21c-1.91-1.04-3.27-2.2-4.08-3.48-.79-1.28-1.19-2.95-1.19-5.01,0-3.49,1.46-6.31,4.39-8.44,2.95-2.15,7.01-3.23,12.21-3.23,4.42,0,8.17,1.01,11.24,3.03,3.08,2.02,4.62,4.82,4.62,8.41,0,4.23-1.76,7.06-5.27,8.5,4.42,1.77,6.63,4.92,6.63,9.43,0,3.91-1.56,7.04-4.67,9.4-3.12,2.34-7.37,3.51-12.77,3.51s-9.66-1.12-12.89-3.37c-3.23-2.25-4.84-5.42-4.84-9.52s2.21-7.23,6.63-9.23ZM290.99,83.82c0,1.45.5,2.63,1.5,3.54,1.02.89,2.46,1.33,4.33,1.33,1.55,0,2.8-.45,3.77-1.36s1.45-2.08,1.45-3.51c0-1.74-.49-3.03-1.47-3.88-.98-.87-2.28-1.3-3.88-1.3-1.85,0-3.27.46-4.25,1.39-.96.92-1.44,2.19-1.44,3.79ZM291.42,67.82c0,1.3.47,2.35,1.42,3.14.96.77,2.19,1.16,3.68,1.16s2.71-.4,3.65-1.19c.96-.79,1.44-1.84,1.44-3.14s-.46-2.45-1.39-3.29c-.91-.83-2.11-1.25-3.6-1.25s-2.8.45-3.77,1.36c-.96.89-1.45,1.95-1.45,3.2Z" style="fill:#7c666a;"/><path d="M323.62,64.51c7.25,0,11.37-3.15,12.35-9.46h9.23v41.43h-12.06v-23.76h-9.52v-8.21Z" style="fill:#7c666a;"/><path d="M356.3,75.52c0-6.44,1.59-11.46,4.76-15.07,3.17-3.61,7.57-5.41,13.2-5.41s9.88,1.8,13,5.41c3.12,3.61,4.67,8.63,4.67,15.07,0,6.99-1.51,12.37-4.53,16.14s-7.4,5.66-13.14,5.66-10.15-1.83-13.28-5.49c-3.12-3.66-4.67-9.1-4.67-16.31ZM368.36,76.29v1.42c0,3.25.46,5.82,1.39,7.73.92,1.89,2.4,2.83,4.42,2.83,1.87,0,3.29-1.01,4.25-3.03.96-2.04,1.44-5.31,1.44-9.8,0-3.62-.48-6.42-1.44-8.38-.94-1.96-2.4-2.95-4.36-2.95s-3.31,1-4.28,3c-.94,2-1.42,5.06-1.42,9.18Z" style="fill:#7c666a;"/><path d="M413.18,40.81h7.23v2.08h-2.32v5.83h-2.59v-5.83h-2.32v-2.08Z" style="fill:#7c666a;"/><path d="M421.43,40.81h3.12l1.38,4.94,1.38-4.94h3.12v7.91h-2.31v-4.57l-1.3,4.57h-1.78l-1.3-4.57v4.57h-2.31v-7.91Z" style="fill:#7c666a;"/></svg>