<?xml version="1.0" encoding="UTF-8"?><svg id="a" xmlns="http://www.w3.org/2000/svg" viewBox="0 0 560 150"><circle cx="280.5" cy="75.5" r="73.5" style="fill:#f9f9f9; stroke:#8d6ca8; stroke-miterlimit:10;"/><circle cx="280.5" cy="75.5" r="66" style="fill:#8d6ca8;"/><rect x="84.5" y="38.5" width="392" height="75" rx="3.29" ry="3.29" style="fill:#fff; stroke:#5b2d83; stroke-miterlimit:10;"/><path d="M128.7,80.34h13.25c-.74,5.48-2.89,9.71-6.46,12.72-3.55,3-8.05,4.5-13.51,4.5-6.91,0-12.35-1.96-16.31-5.89-3.96-3.95-5.95-9.29-5.95-16.03,0-6.38,1.9-11.63,5.69-15.75,3.81-4.12,8.88-6.17,15.21-6.17s11.2,1.51,14.73,4.53c3.55,3,5.6,7.23,6.15,12.69h-13.06c-.19-2.1-.92-3.79-2.18-5.07-1.25-1.3-2.93-1.95-5.04-1.95-5.21,0-7.82,4-7.82,12.01,0,4.06.68,6.99,2.04,8.78,1.38,1.77,3.46,2.66,6.26,2.66,1.94,0,3.52-.6,4.73-1.81,1.23-1.23,1.98-2.96,2.27-5.21Z" style="fill:#5b2d83;"/><path d="M148.07,96.48v-41.69h34.07v9.74h-20.39v5.92h17.19v9.74h-17.19v6.54h21.24v9.74h-34.92Z" style="fill:#5b2d83;"/><path d="M189.96,54.79h13.68v31.95h18.58v9.74h-32.26v-41.69Z" style="fill:#5b2d83;"/><path d="M227.57,54.79h16.45l7.28,26.05,7.28-26.05h16.45v41.69h-12.18v-24.1l-6.85,24.1h-9.4l-6.85-24.1v24.1h-12.18v-41.69Z" style="fill:#5b2d83;"/><path d="M279.54,96.48l14.95-41.69h13.91l14.95,41.69h-13.68l-1.56-5.44h-13.59l-1.5,5.44h-13.48ZM297.12,82.38h8.55l-4.33-14.87-4.22,14.87Z" style="fill:#5b2d83;"/><path d="M328.05,54.79h12.83l14.36,21.81v-21.81h13.06v41.69h-12.83l-14.36-21.98v21.98h-13.06v-41.69Z" style="fill:#5b2d83;"/><path d="M372.97,96.48l14.95-41.69h13.91l14.95,41.69h-13.68l-1.56-5.44h-13.59l-1.5,5.44h-13.48ZM390.55,82.38h8.55l-4.33-14.87-4.22,14.87Z" style="fill:#5b2d83;"/><path d="M417.85,96.48l14.81-21.83-13.31-19.85h15.41l5.78,10.42,5.86-10.42h15.41l-13.93,19.85,14.16,21.83h-15.41l-6.66-11.72-6.71,11.72h-15.41Z" style="fill:#5b2d83;"/><path d="M483.11,40.81h6.59v1.75h-2.13v5.43h-2.32v-5.43h-2.13v-1.75Z" style="fill:#5b2d83;"/><path d="M493.52,40.81l1.17,4.66,1.35-4.66h2.92v7.18h-2.53v-2.33l.2-2.13-1.17,4.47h-1.55l-1.17-4.47.2,2.13v2.33h-2.33v-7.18h2.91Z" style="fill:#5b2d83;"/></svg>